<?xml version="1.0" standalone="no"?>
<!DOCTYPE svg PUBLIC "-//W3C//DTD SVG 20010904//EN"
 "http://www.w3.org/TR/2001/REC-SVG-20010904/DTD/svg10.dtd">
<svg version="1.0" xmlns="http://www.w3.org/2000/svg"
 width="1500.000000pt" height="1500.000000pt" viewBox="0 0 1500.000000 1500.000000"
 preserveAspectRatio="xMidYMid meet">
<metadata>
Created by potrace 1.11, written by Peter Selinger 2001-2013
</metadata>
<g transform="translate(0.000000,1500.000000) scale(0.100000,-0.100000)"
fill="#000000" stroke="none">
<path d="M9965 12334 c-16 -8 -41 -13 -55 -13 -41 2 -54 -1 -47 -8 4 -3 -9
-16 -29 -27 -21 -12 -42 -29 -48 -39 -6 -10 -26 -34 -43 -54 -18 -19 -36 -45
-39 -59 -3 -13 -9 -24 -13 -24 -4 0 -7 -10 -8 -22 0 -13 -3 -41 -7 -63 -3 -21
0 -56 6 -78 9 -31 9 -40 -2 -47 -8 -5 -19 -6 -25 -2 -12 7 -29 12 -65 17 -14
2 -50 11 -80 19 -30 9 -63 18 -73 21 -9 2 -20 6 -25 8 -4 3 -23 8 -42 11 -19
3 -51 10 -70 14 -19 4 -44 8 -55 7 -11 0 -22 3 -25 7 -3 4 -24 9 -45 11 -22 2
-47 6 -55 9 -60 20 -90 28 -125 33 -22 3 -51 8 -65 12 -14 3 -28 6 -32 5 -5
-1 -8 1 -8 6 0 4 -35 7 -78 7 -42 0 -86 4 -97 9 -11 5 -36 10 -55 11 -19 2
-35 4 -35 5 0 2 -47 10 -62 10 -7 0 -19 0 -25 -1 -7 0 -22 2 -33 4 -11 3 -27
7 -35 9 -8 1 -18 7 -21 12 -4 5 -13 5 -20 0 -15 -9 -59 -12 -59 -4 0 3 -8 6
-19 7 -34 3 -116 46 -148 79 -50 51 -77 65 -130 66 -79 0 -168 -11 -171 -22
-2 -6 -8 -8 -13 -4 -5 3 -9 1 -9 -5 0 -5 -6 -16 -13 -23 -27 -26 -69 -109 -63
-123 3 -8 -1 -21 -9 -29 -8 -7 -11 -16 -8 -20 4 -3 1 -6 -5 -6 -6 0 -16 -16
-23 -35 -10 -25 -19 -35 -36 -36 -74 -4 -164 -16 -193 -25 -8 -3 -17 -5 -19
-4 -2 1 -8 -5 -13 -14 -5 -9 -13 -14 -19 -11 -5 4 -9 1 -9 -5 0 -15 -67 -10
-102 7 -15 7 -36 13 -48 13 -11 0 -32 7 -45 16 -14 9 -25 14 -25 11 0 -3 -19
0 -43 7 -24 7 -60 12 -80 11 -20 0 -37 3 -37 8 0 5 -9 7 -20 4 -11 -3 -20 -1
-20 5 0 5 -4 7 -9 4 -5 -3 -25 1 -45 9 -20 8 -36 12 -36 9 0 -4 -6 -1 -14 5
-7 6 -42 13 -77 16 -35 2 -80 10 -99 19 -20 8 -60 16 -91 18 -30 3 -60 8 -67
12 -6 4 -26 6 -44 5 -18 0 -58 8 -88 19 -30 12 -71 23 -90 25 -52 8 -129 39
-179 72 -71 48 -144 84 -173 84 -15 1 -29 5 -33 10 -3 6 -23 5 -50 -3 -24 -8
-46 -12 -48 -10 -2 3 -10 -2 -17 -11 -7 -8 -17 -15 -23 -15 -14 0 -67 -57 -67
-72 0 -7 -22 -34 -49 -60 -26 -26 -51 -56 -54 -67 -6 -25 5 -27 23 -6 23 28
38 18 33 -22 -5 -40 -18 -54 -38 -47 -7 3 -15 -2 -19 -12 -4 -12 12 -35 59
-81 36 -36 65 -70 65 -74 0 -5 6 -9 14 -9 8 0 16 -4 18 -9 2 -6 14 -12 28 -14
49 -10 82 -27 87 -47 3 -11 10 -20 15 -20 5 0 6 -5 3 -11 -4 -5 -4 -21 -1 -34
5 -18 17 -25 58 -35 29 -6 70 -18 91 -26 20 -8 41 -13 45 -12 4 1 21 -1 37 -5
17 -4 44 -9 62 -11 18 -3 38 -8 45 -12 6 -4 21 -9 32 -10 12 -2 46 -8 76 -14
30 -7 62 -13 70 -14 41 -7 86 -19 95 -26 6 -4 20 -6 32 -5 31 2 37 -22 8 -29
-13 -3 -26 -15 -30 -25 -3 -10 -16 -22 -29 -25 -19 -5 -23 -11 -20 -36 2 -16
-1 -30 -6 -30 -5 0 -10 -12 -12 -27 -3 -26 -5 -27 -72 -29 -55 -1 -79 3 -114
21 -36 18 -58 22 -117 20 -40 -1 -77 -5 -83 -9 -13 -8 -53 10 -50 22 1 4 -2
14 -6 22 -5 13 -29 16 -140 14 -73 0 -138 -4 -144 -8 -17 -10 -43 -63 -47 -94
-1 -15 -3 -31 -4 -35 0 -5 -26 -7 -56 -5 -30 1 -55 0 -55 -4 0 -5 -8 -8 -19
-8 -23 0 -42 -22 -32 -38 8 -14 6 -96 -4 -111 -3 -6 -1 -11 6 -11 9 0 9 -3 0
-14 -7 -8 -8 -17 -3 -20 10 -6 9 -36 -1 -53 -4 -6 -3 -14 3 -18 6 -4 8 -9 6
-13 -9 -16 28 -33 76 -36 16 0 28 -4 28 -7 0 -6 25 -12 100 -25 14 -3 40 -9
58 -15 18 -6 41 -12 50 -14 9 -2 18 -4 20 -5 1 -2 5 -3 10 -4 31 -8 71 -17 90
-21 12 -3 32 -8 45 -11 12 -3 39 -7 60 -9 21 -2 47 -7 57 -10 11 -4 31 -8 45
-11 14 -2 35 -6 48 -9 12 -3 44 -9 71 -15 27 -5 52 -12 54 -15 3 -3 10 0 17 5
8 6 18 5 31 -4 17 -13 16 -16 -27 -54 -24 -22 -54 -60 -66 -84 -20 -39 -51
-69 -78 -74 -5 -1 -23 -5 -40 -9 -16 -3 -64 -8 -105 -10 -41 -2 -75 -4 -75 -5
0 -2 -38 -3 -85 -5 -47 -1 -112 -6 -145 -10 -33 -4 -76 -8 -95 -10 -93 -7
-161 -17 -212 -31 -13 -3 -52 -7 -88 -9 -36 -1 -65 -3 -65 -4 0 -1 -20 -4 -44
-7 -24 -2 -48 -7 -55 -11 -6 -4 -29 -8 -51 -8 -22 0 -44 -3 -50 -6 -5 -2 -21
-4 -35 -4 -14 0 -28 -4 -32 -10 -5 -6 -8 -5 -8 3 0 8 -5 10 -12 5 -7 -4 -22
-8 -33 -10 -11 -1 -42 -7 -70 -13 -51 -12 -107 -21 -137 -23 -10 -1 -18 -4
-18 -7 0 -3 -12 -7 -27 -8 -41 -3 -191 -80 -204 -104 -14 -26 -18 -31 -70 -88
-22 -25 -46 -59 -54 -76 -7 -17 -24 -40 -39 -51 -29 -23 -33 -57 -11 -87 11
-15 28 -20 67 -21 54 -1 82 -10 73 -25 -2 -4 4 -19 15 -33 23 -29 28 -79 6
-71 -7 3 -16 -1 -19 -10 -3 -8 1 -17 9 -20 25 -10 15 -25 -21 -32 -19 -3 -36
-11 -36 -18 -1 -6 -2 -38 -3 -71 -1 -33 -4 -65 -8 -70 -8 -14 11 -37 44 -54
31 -16 28 22 26 -321 -2 -311 -3 -350 -11 -350 -5 0 -5 -6 0 -12 13 -20 12
-187 -1 -195 -6 -4 -87 -8 -181 -9 -93 -1 -186 -5 -205 -8 -39 -6 -80 10 -80
31 0 8 -5 11 -10 8 -6 -4 -25 9 -43 29 -18 19 -44 37 -57 39 -24 4 -104 -36
-143 -71 -10 -9 -25 -17 -34 -18 -9 -2 -20 -9 -24 -16 -5 -7 -9 -9 -9 -4 0 4
-11 1 -25 -8 -14 -9 -25 -14 -25 -10 0 3 -15 -3 -32 -14 -18 -11 -41 -18 -50
-17 -10 2 -18 -1 -18 -6 0 -5 -3 -8 -7 -7 -5 1 -18 -3 -29 -9 -12 -7 -36 -15
-55 -18 -18 -3 -38 -10 -45 -15 -6 -6 -14 -7 -17 -3 -4 3 -7 1 -7 -5 0 -10
-88 -49 -101 -45 -4 1 -21 -11 -39 -27 -18 -16 -48 -34 -66 -40 -19 -7 -34
-15 -34 -19 0 -3 -16 -15 -35 -25 -19 -11 -35 -22 -35 -26 0 -4 -19 -27 -43
-51 -42 -44 -84 -115 -92 -159 -2 -12 -7 -30 -10 -41 -9 -26 -16 -109 -20
-214 -2 -49 -5 -100 -8 -112 -3 -13 -2 -23 2 -23 4 0 7 -18 7 -41 -1 -22 2
-43 6 -45 8 -5 6 -273 -2 -275 -17 -4 -218 -5 -232 -1 -26 6 -17 66 20 128 16
28 32 67 35 85 3 19 9 45 15 59 10 26 9 50 -4 78 -4 9 -9 26 -11 37 -6 37 -13
70 -19 100 -7 30 -34 75 -64 105 -8 8 -24 27 -35 40 -25 31 -84 74 -92 67 -3
-4 -12 0 -20 8 -8 8 -23 15 -34 15 -10 0 -19 5 -19 12 0 6 -3 9 -6 6 -3 -4
-20 0 -38 7 -57 24 -156 39 -156 24 0 -5 -7 -6 -15 -3 -8 4 -35 -3 -60 -15
-25 -12 -49 -21 -54 -21 -6 0 -35 -23 -65 -50 -50 -47 -82 -100 -69 -114 3 -3
-8 -13 -26 -23 -28 -16 -35 -33 -30 -69 0 -4 -4 -10 -10 -13 -5 -4 -12 -18
-15 -33 -2 -14 -8 -35 -13 -45 -17 -34 -7 -166 16 -213 15 -30 18 -46 10 -51
-8 -5 -8 -8 0 -13 6 -4 11 -16 11 -27 0 -10 4 -19 8 -19 4 0 16 -13 25 -30 16
-26 16 -30 2 -30 -8 0 -23 4 -33 9 -14 8 -116 32 -147 35 -5 1 -13 6 -17 11
-5 7 -8 6 -8 -1 0 -7 -50 -11 -147 -11 -180 -1 -260 -7 -294 -21 -15 -6 -29
-8 -32 -6 -3 3 -14 1 -24 -4 -10 -6 -34 -11 -53 -13 -19 -2 -42 -9 -50 -16 -9
-7 -36 -11 -64 -9 -33 2 -49 -1 -53 -10 -6 -15 -43 -1 -43 16 0 9 -37 52 -42
49 -2 -1 -23 7 -48 19 -32 14 -61 19 -100 17 -65 -3 -79 -8 -103 -38 -9 -12
-28 -35 -41 -52 -18 -23 -21 -35 -15 -53 5 -13 7 -28 4 -32 -3 -5 -1 -11 4
-14 19 -12 -1 -58 -42 -97 -23 -21 -46 -39 -52 -39 -23 -1 -150 -140 -177
-195 -14 -28 -14 -32 4 -50 10 -10 18 -26 17 -35 -3 -31 2 -38 31 -50 17 -7
30 -16 30 -20 0 -4 12 -13 28 -20 30 -15 26 -14 67 -25 17 -4 35 -11 40 -15 9
-7 40 -15 103 -27 46 -8 386 -9 404 -1 9 4 19 4 22 -1 4 -5 22 -5 43 0 21 4
72 6 113 3 94 -6 107 -8 152 -27 20 -8 38 -13 41 -11 2 3 7 -1 10 -9 3 -9 -3
-13 -22 -14 -57 0 -186 -14 -191 -21 -5 -7 -19 -12 -47 -16 -7 -1 -16 -5 -19
-9 -4 -4 -15 -7 -24 -7 -10 0 -23 -6 -30 -14 -6 -8 -18 -12 -27 -9 -8 3 -18 1
-22 -5 -4 -6 -16 -13 -26 -15 -19 -3 -31 -9 -102 -48 -18 -10 -33 -16 -33 -14
0 5 -134 -83 -168 -109 -25 -20 -67 -62 -87 -86 -11 -14 -33 -32 -50 -40 -16
-8 -39 -24 -50 -35 -11 -12 -39 -35 -62 -53 -23 -18 -45 -41 -48 -52 -3 -10
-14 -22 -24 -25 -10 -3 -24 -17 -31 -30 -7 -14 -18 -25 -23 -25 -5 0 -15 -7
-21 -16 -7 -10 -32 -17 -66 -20 -30 -2 -68 -6 -85 -7 -16 -2 -37 0 -46 4 -8 4
-21 4 -29 -1 -9 -5 -19 -5 -27 2 -10 8 -13 7 -13 -3 0 -10 -3 -10 -12 -1 -6 6
-18 8 -27 3 -20 -9 -31 -8 -56 6 -11 6 -43 11 -71 10 -50 0 -50 0 -51 -33 -1
-41 12 -52 27 -23 7 11 14 18 18 15 3 -3 17 1 30 10 24 16 26 15 39 -2 7 -10
13 -14 13 -10 0 5 6 3 13 -3 8 -6 18 -7 22 -3 5 4 5 -1 2 -11 -4 -10 -7 -21
-7 -23 0 -2 -14 -4 -31 -4 -33 0 -58 -18 -52 -37 3 -7 12 -9 20 -6 13 5 15 2
10 -11 -4 -10 -7 -20 -7 -22 0 -11 -30 -2 -31 9 0 6 -5 2 -11 -10 -6 -13 -20
-23 -31 -23 -15 0 -17 3 -8 14 9 10 8 16 -4 26 -13 11 -15 5 -15 -43 0 -48 3
-55 23 -61 18 -5 19 -8 7 -15 -8 -5 -18 -7 -22 -5 -4 3 -8 -102 -8 -233 l0
-238 37 -1 c99 -2 92 3 90 -64 -2 -40 2 -61 10 -65 8 -2 14 4 14 15 2 28 3 34
11 45 3 6 9 27 13 48 6 29 12 37 29 37 12 0 30 -6 40 -13 16 -12 17 -17 5 -38
-7 -13 -15 -31 -16 -39 -10 -45 -14 -70 -18 -120 -2 -30 -7 -75 -10 -100 -9
-63 -13 -94 -14 -104 -1 -5 -8 -3 -16 4 -12 10 -15 10 -15 -2 0 -8 4 -18 10
-24 6 -6 5 -18 -4 -35 -9 -18 -10 -32 -3 -50 5 -13 10 -64 12 -114 1 -52 8
-105 17 -125 8 -19 11 -37 7 -40 -5 -3 -3 -17 4 -30 8 -14 12 -40 10 -58 -2
-17 0 -32 5 -32 5 0 9 -6 9 -12 0 -7 3 -23 7 -35 4 -13 3 -23 -2 -23 -13 0
-33 25 -37 47 -2 10 -4 23 -5 28 -1 6 -5 -3 -9 -20 -4 -20 -1 -40 10 -60 9
-16 22 -47 29 -67 6 -21 16 -38 21 -38 5 0 9 -12 9 -26 0 -14 4 -23 10 -19 6
3 10 -5 10 -19 0 -25 68 -166 98 -201 9 -12 32 -27 50 -34 17 -7 32 -18 32
-23 0 -6 18 -33 40 -60 22 -28 40 -59 40 -69 0 -11 5 -19 10 -19 6 0 10 -6 10
-12 0 -7 24 -30 53 -51 28 -21 75 -59 102 -85 28 -26 68 -60 90 -77 22 -16 49
-39 60 -50 28 -27 78 -60 87 -57 5 1 8 -3 8 -9 0 -5 3 -8 8 -6 4 3 25 -6 47
-19 53 -32 143 -73 174 -81 14 -3 38 -14 53 -25 15 -10 29 -14 32 -9 4 5 20 2
39 -7 17 -9 42 -18 55 -20 60 -8 92 -35 57 -48 -33 -13 10 -37 90 -50 41 -7
50 -10 61 -16 5 -4 39 -8 75 -9 35 -1 76 -8 91 -15 17 -9 29 -10 33 -4 4 6 12
7 18 3 6 -4 37 -7 68 -8 33 -1 65 -7 75 -16 16 -12 17 -12 9 1 -6 12 -5 12 5
3 7 -6 19 -9 26 -6 8 3 21 0 29 -7 11 -9 15 -9 15 -1 0 9 5 9 21 0 16 -8 23
-8 29 1 6 9 9 9 11 1 3 -7 14 -13 27 -14 12 0 22 -6 22 -12 0 -6 3 -7 8 0 9
13 35 18 27 5 -7 -11 8 -14 19 -3 11 11 36 12 36 1 0 -6 9 -8 20 -5 13 3 20 0
20 -10 0 -8 5 -11 10 -8 6 4 7 12 3 18 -3 7 2 5 13 -4 29 -24 48 -34 40 -21
-4 7 -2 12 3 12 6 0 11 -8 11 -17 0 -15 2 -16 10 -3 8 13 10 13 10 -1 0 -9 11
-21 25 -27 21 -10 23 -9 18 6 -3 10 1 8 12 -6 12 -17 20 -20 29 -13 7 6 17 7
21 3 5 -4 5 -1 1 6 -4 7 -11 10 -16 7 -5 -3 -11 -1 -14 4 -9 13 19 8 38 -8 9
-7 13 -18 9 -24 -4 -6 -1 -7 6 -3 7 5 10 14 8 20 -7 18 35 14 51 -4 12 -13 13
-13 9 1 -4 13 -1 15 14 12 10 -3 16 -9 13 -14 -3 -5 0 -9 5 -9 6 0 11 5 11 10
0 6 5 10 11 10 5 0 8 -4 5 -9 -4 -5 2 -8 11 -6 10 1 24 -3 32 -9 11 -8 13 -8
8 0 -4 7 0 15 9 18 11 4 15 2 11 -7 -3 -8 1 -14 9 -14 7 0 11 3 10 6 -2 3 13
6 34 6 32 0 36 -2 27 -14 -9 -12 -9 -13 1 -7 19 11 62 15 62 5 0 -5 7 -6 15
-3 8 4 12 11 8 18 -4 8 -2 8 7 -1 7 -6 19 -9 28 -6 9 4 13 2 9 -4 -8 -12 39
-11 50 1 5 5 2 6 -6 1 -10 -5 -12 -4 -7 4 4 6 12 9 17 5 5 -3 7 -10 4 -15 -9
-13 9 -11 24 4 10 8 12 8 7 0 -11 -20 30 -39 81 -37 26 1 56 -2 67 -8 13 -7
16 -7 12 1 -4 6 0 11 9 11 10 0 13 -5 9 -12 -5 -7 -3 -8 7 -3 19 12 49 14 55
3 3 -4 10 -6 15 -2 5 3 7 10 3 15 -3 5 -9 7 -14 4 -5 -3 -11 -2 -14 3 -6 10
41 8 66 -3 10 -4 16 -10 13 -14 -2 -4 2 -8 10 -8 18 0 19 9 3 27 -11 12 -10
12 3 2 9 -6 20 -8 24 -4 5 4 4 1 0 -7 -6 -11 -4 -13 9 -8 10 4 20 7 22 7 3 0
2 6 -2 13 -5 8 -2 8 9 -2 17 -14 24 -26 9 -17 -4 2 -19 -5 -32 -16 l-25 -20
28 16 c15 9 27 14 27 10 0 -4 7 -1 15 6 8 7 15 9 15 4 0 -5 5 -2 10 6 7 10 10
11 10 2 0 -7 -7 -15 -15 -18 -8 -4 -12 -10 -9 -16 3 -5 14 0 23 11 17 20 43
23 58 6 4 -4 2 -5 -6 0 -10 6 -12 4 -7 -4 5 -7 10 -10 14 -7 3 3 11 -2 19 -12
12 -16 13 -16 7 0 -7 20 12 25 19 6 3 -8 6 -7 6 4 1 9 6 20 12 24 8 4 9 -1 4
-17 -7 -22 -6 -23 7 -5 13 16 16 16 29 4 12 -12 17 -12 26 -3 7 7 9 17 5 21
-4 5 1 2 10 -5 19 -14 25 -26 9 -16 -5 3 -13 0 -17 -6 -4 -8 -3 -9 4 -5 7 4
12 1 12 -6 0 -9 3 -9 10 2 5 8 10 12 10 7 0 -4 13 -1 29 8 20 10 32 11 36 5 4
-6 1 -9 -6 -8 -6 2 -14 -4 -16 -12 -3 -10 -2 -11 4 -4 4 6 17 9 28 7 11 -2 26
-4 33 -4 30 2 40 2 97 -1 33 -2 69 -8 79 -13 12 -5 17 -5 13 1 -3 5 3 10 14
10 10 0 19 -4 19 -8 0 -4 8 -8 18 -8 12 0 14 2 4 8 -8 6 0 9 23 9 19 0 35 -5
35 -10 0 -5 7 -3 17 4 12 10 17 11 20 2 2 -7 11 -9 19 -6 10 4 13 0 8 -13 -4
-14 -3 -16 4 -5 8 10 14 11 32 1 15 -8 20 -8 16 -1 -4 6 -3 11 2 11 5 0 14
-10 20 -22 6 -13 11 -17 11 -10 1 7 5 11 10 7 5 -3 13 0 17 6 5 8 3 9 -6 4 -8
-5 -11 -4 -6 3 4 6 14 8 23 5 12 -5 14 -3 8 7 -5 9 -4 11 4 6 9 -6 9 -11 0
-22 -10 -12 -9 -13 7 -7 10 3 23 11 27 17 6 7 7 5 4 -5 -3 -9 0 -16 6 -16 7 0
19 -3 27 -5 8 -3 12 -3 7 -1 -4 3 -5 9 -2 14 4 5 -2 6 -12 3 -14 -5 -15 -4 -4
4 10 7 21 6 38 -5 13 -8 23 -11 23 -5 0 5 7 13 16 16 14 5 15 4 5 -8 -9 -11
-9 -16 1 -22 7 -4 10 -4 6 1 -5 5 2 13 15 20 18 9 25 8 38 -6 11 -13 35 -19
86 -21 39 -2 78 -10 86 -17 13 -10 15 -9 12 6 -1 10 -9 17 -16 15 -12 -3 -12
-1 -1 10 8 8 15 9 20 3 4 -6 15 -11 25 -12 33 -1 37 -3 37 -19 0 -8 4 -13 9
-10 5 4 12 0 15 -6 3 -7 4 -4 1 7 -4 15 0 21 15 22 11 1 20 -3 20 -8 0 -6 -4
-7 -10 -4 -5 3 -10 2 -10 -4 0 -6 20 -9 45 -7 33 2 48 -2 55 -13 5 -9 10 -11
10 -5 0 5 -5 15 -10 20 -8 8 -5 15 7 25 16 13 17 12 4 -3 -12 -16 -11 -18 10
-18 20 0 21 -2 9 -11 -12 -9 -12 -10 3 -5 10 3 21 6 23 6 3 0 2 6 -2 12 -5 9
-3 9 9 -1 9 -7 14 -18 10 -24 -3 -6 -1 -7 5 -3 6 4 8 14 5 24 -3 9 -3 14 2 10
4 -4 17 -3 29 3 20 10 20 10 2 -5 -17 -13 -18 -18 -6 -29 10 -10 11 -9 5 1 -5
9 -1 12 11 10 11 -2 22 -7 25 -11 3 -5 9 -2 12 6 4 11 0 15 -14 12 -11 -2 -17
0 -13 6 3 6 9 8 12 5 3 -3 12 0 20 7 13 9 14 9 8 -1 -4 -7 -2 -12 5 -12 8 0 8
-5 -2 -17 -10 -14 -8 -13 10 2 19 15 23 16 19 4 -4 -9 -1 -16 8 -16 7 0 11 3
9 7 -2 3 5 6 16 6 22 0 24 -7 7 -26 -11 -12 -10 -12 5 -1 15 12 19 11 31 -4
12 -17 13 -16 12 5 -1 27 16 36 36 18 17 -16 42 -22 33 -8 -3 5 -2 10 3 10 13
0 24 -29 15 -42 -3 -7 -1 -8 6 -4 6 4 9 16 6 26 -3 10 -1 21 5 25 6 4 9 1 8
-6 -2 -7 7 -14 19 -15 13 -1 31 -7 40 -15 16 -13 17 -12 4 4 -8 9 -11 20 -7
24 3 4 13 -2 21 -13 9 -12 13 -13 10 -4 -4 11 1 16 15 17 11 1 19 -2 17 -7 -1
-4 3 -8 8 -8 6 0 9 4 7 9 -3 14 6 11 28 -9 11 -9 23 -15 25 -12 2 3 11 -4 20
-15 16 -19 16 -19 5 3 -6 12 -15 20 -20 17 -5 -3 -11 -1 -15 5 -3 5 1 10 9 10
10 0 13 6 10 18 -5 14 -4 14 4 2 6 -8 8 -18 6 -22 -3 -4 2 -8 11 -8 10 0 13
-5 9 -12 -4 -7 -3 -8 4 -4 6 4 9 13 5 21 -3 8 -1 15 4 15 13 0 13 -32 -1 -49
-6 -8 3 -4 21 9 18 13 29 28 26 33 -3 6 -1 7 6 3 6 -4 20 -2 29 6 16 12 16 11
2 -6 -14 -18 -13 -19 2 -13 10 3 20 1 24 -5 4 -6 3 -8 -2 -5 -6 3 -16 2 -23
-2 -9 -6 -10 -11 -2 -15 6 -4 11 -3 11 1 0 5 9 9 20 10 11 1 18 -2 15 -7 -3
-6 0 -7 8 -4 8 3 18 0 22 -6 8 -13 35 5 35 24 0 6 -7 2 -15 -8 -13 -18 -19
-15 -16 6 0 4 -5 5 -13 2 -8 -3 -17 -1 -21 5 -4 7 0 8 11 4 10 -4 15 -2 11 4
-3 5 0 10 8 10 8 0 12 -4 9 -8 -6 -11 40 -7 47 4 3 5 9 1 12 -8 4 -9 3 -14 -1
-11 -4 3 -13 -3 -19 -13 -9 -14 -8 -18 3 -18 7 0 11 4 9 8 -3 4 2 10 11 13 24
9 26 8 13 -16 -9 -18 -5 -16 17 7 16 17 27 34 26 40 -2 5 5 1 16 -8 15 -14 21
-15 25 -5 4 11 6 11 6 0 1 -7 5 -11 10 -8 5 3 11 -1 14 -9 4 -9 1 -12 -9 -8
-7 3 -14 0 -14 -6 0 -6 3 -10 8 -10 20 3 32 -2 26 -13 -4 -6 -3 -8 4 -5 11 8
11 24 -2 47 -7 12 -6 12 4 3 7 -6 18 -10 24 -9 6 2 8 1 3 -1 -4 -3 -4 -9 -1
-15 3 -5 14 -2 25 8 11 9 22 14 26 11 3 -4 1 -7 -6 -7 -7 0 -9 -5 -6 -11 5 -7
14 -4 26 7 14 13 22 15 31 6 8 -8 15 -7 26 5 14 13 17 13 26 1 6 -8 21 -14 34
-13 12 1 22 -3 22 -8 0 -5 -9 -7 -20 -4 -11 3 -18 1 -14 -4 3 -5 1 -9 -5 -9
-5 0 -13 9 -16 20 -8 24 -24 18 -21 -8 2 -14 13 -17 57 -17 30 0 54 5 54 10 1
15 24 52 25 38 0 -19 -4 -28 -12 -26 -4 2 -5 -3 -2 -10 3 -8 11 -14 19 -14 8
0 12 4 9 9 -3 4 -2 13 2 20 5 8 10 6 15 -8 6 -16 8 -16 8 -2 1 9 -5 21 -11 25
-7 4 -20 17 -28 28 -8 11 8 2 35 -20 28 -22 44 -33 37 -24 -10 14 -9 17 9 22
16 4 19 2 15 -11 -5 -14 -4 -14 8 1 11 14 15 15 20 5 3 -7 3 -3 0 10 -6 23 11
31 19 10 4 -10 6 -10 6 0 1 6 6 12 12 12 5 0 7 -5 3 -12 -4 -7 -3 -8 5 -4 14
9 3 29 -13 23 -7 -3 -13 5 -14 16 0 12 2 17 6 11 12 -19 50 -35 57 -24 4 6 3
9 -2 8 -4 -2 -9 0 -10 5 -3 8 1 9 22 0 14 -5 13 -9 -7 -32 -23 -26 -22 -26 8
2 35 31 65 38 43 10 -11 -15 -10 -14 9 1 12 11 22 14 22 8 0 -7 5 -12 11 -12
8 0 7 5 -2 16 -11 14 -10 18 6 27 28 16 65 20 65 7 0 -5 5 -10 11 -10 5 0 8 4
5 8 -9 15 11 35 25 26 24 -14 40 -13 37 3 -2 9 5 17 16 19 27 4 58 -14 50 -29
-5 -9 -3 -8 7 1 7 6 23 12 36 12 13 0 23 -6 23 -12 0 -9 4 -8 10 2 9 13 11 13
21 0 9 -13 10 -13 6 2 -3 9 1 19 9 22 21 8 24 8 24 -5 0 -5 -4 -7 -10 -4 -5 3
-7 0 -4 -9 5 -12 9 -13 19 -3 7 7 12 15 12 18 -2 7 3 9 29 9 9 0 12 -5 8 -12
-4 -7 7 -2 24 11 18 12 36 20 41 17 5 -3 15 2 22 12 13 15 12 16 -3 3 -10 -7
-18 -9 -18 -3 0 16 26 22 40 9 10 -10 11 -7 7 13 -5 21 -4 22 6 10 7 -8 18
-16 26 -18 12 -3 12 0 1 13 -11 13 -10 15 4 9 9 -3 16 -9 16 -13 0 -4 7 -8 15
-8 9 0 11 4 6 11 -6 7 -1 11 17 12 15 1 21 -1 15 -3 -18 -6 -16 -20 2 -20 8 0
17 9 21 19 6 19 24 25 24 8 0 -5 -5 -10 -12 -10 -6 0 -9 -2 -6 -5 3 -3 17 0
32 6 21 10 24 15 13 27 -11 13 -9 14 10 2 12 -8 19 -18 16 -23 -3 -5 4 -4 15
2 12 6 27 10 34 9 7 -2 12 3 10 10 -1 6 5 12 13 12 8 0 15 -6 15 -12 0 -8 3
-9 8 -3 10 14 55 39 47 26 -3 -6 1 -11 10 -11 10 0 14 -5 9 -12 -6 -10 -4 -10
7 0 17 16 32 16 24 -1 -4 -6 2 -2 13 11 13 13 22 18 24 10 3 -8 9 -8 24 1 16
11 16 12 1 7 -11 -4 -16 -2 -12 5 4 6 13 8 21 5 8 -3 14 0 14 7 0 8 3 7 9 -2
7 -11 13 -12 24 -3 11 9 14 9 14 -3 0 -8 -5 -11 -11 -8 -6 3 -5 0 3 -8 10 -11
15 -11 18 -1 3 9 9 7 21 -6 10 -10 16 -16 15 -13 -2 2 9 10 24 18 18 9 30 10
37 3 7 -7 14 -3 24 12 13 22 12 12 -2 -22 -5 -11 0 -16 16 -17 17 -2 19 0 8 7
-8 5 -12 12 -8 15 3 3 12 -1 21 -9 13 -14 16 -14 21 0 3 8 2 12 -3 9 -5 -3
-12 -1 -16 4 -3 6 6 8 21 5 18 -3 23 -1 18 7 -5 8 -3 9 5 5 9 -6 8 -13 -6 -29
-9 -12 -11 -16 -3 -9 16 14 34 16 26 4 -3 -5 1 -9 9 -9 8 0 12 3 10 7 -3 4 4
15 14 24 15 13 18 14 18 1 0 -8 -3 -12 -7 -10 -4 2 -7 -2 -7 -10 0 -8 4 -15 9
-15 4 0 8 5 8 10 0 16 32 11 46 -7 13 -17 14 -17 8 0 -3 9 -1 17 5 17 6 0 11
-6 11 -12 0 -9 4 -8 10 2 9 13 10 13 10 0 0 -12 2 -13 9 -1 5 7 14 10 20 7 6
-4 8 -12 5 -18 -4 -7 -2 -8 5 -4 6 4 9 11 7 15 -3 4 15 9 39 9 29 2 45 -2 45
-10 0 -6 3 -8 7 -4 5 4 -1 15 -12 23 -20 16 -20 16 0 8 11 -4 29 -9 40 -10 11
-1 19 -8 17 -14 -1 -7 2 -9 8 -6 8 5 6 15 -5 31 -8 13 -11 24 -5 24 5 0 10 -5
10 -11 0 -8 4 -8 13 0 10 8 14 7 14 -4 0 -8 -5 -11 -10 -8 -6 3 -7 1 -3 -6 4
-6 11 -9 16 -6 5 3 12 1 15 -5 4 -7 11 -7 18 -2 7 5 20 8 30 6 11 -1 16 1 12
4 -4 4 -12 7 -18 7 -5 0 -12 7 -14 15 -3 9 -1 11 4 5 4 -5 15 -12 23 -14 8 -2
20 -4 25 -6 28 -6 44 -18 38 -29 -3 -6 0 -5 8 3 11 10 11 15 1 18 -6 3 -10 9
-7 14 4 5 -1 6 -9 3 -18 -7 -23 21 -6 31 5 3 7 0 4 -9 -4 -12 0 -14 20 -10 15
2 26 0 26 -6 0 -6 -6 -8 -12 -4 -10 5 -10 4 -1 -6 12 -13 37 -4 28 11 -4 5 -1
9 4 9 6 0 11 -4 11 -10 0 -5 7 -10 16 -10 14 0 14 3 4 18 -7 9 3 -1 23 -22 20
-23 39 -36 46 -32 6 4 9 12 6 17 -4 5 1 9 10 9 9 0 14 -4 11 -9 -3 -4 6 -6 19
-3 14 2 25 8 25 13 0 5 -7 6 -15 3 -10 -4 -15 0 -15 12 0 16 2 17 10 4 9 -13
14 -7 11 12 0 4 10 3 22 -3 27 -12 32 -39 8 -40 -11 0 -12 -2 -3 -6 7 -3 20 1
28 8 13 10 17 10 25 -2 6 -10 9 -11 9 -1 0 7 4 11 8 8 5 -3 9 1 9 9 0 8 -4 12
-9 9 -4 -3 -5 2 -2 10 8 20 33 -2 27 -24 -2 -8 3 -4 12 10 14 23 15 23 10 3
-5 -17 -2 -22 14 -20 11 0 18 5 15 9 -3 4 19 5 48 4 30 -2 59 1 67 8 8 6 12 7
10 1 -3 -5 2 -18 13 -27 21 -20 23 -16 7 14 -8 16 -8 19 1 13 7 -4 16 -1 21 6
7 12 9 11 9 -1 0 -13 1 -13 11 0 9 13 10 13 6 0 -2 -8 -10 -14 -16 -12 -6 1
-11 -2 -11 -8 0 -5 5 -10 11 -10 5 0 7 -5 3 -12 -4 -7 -3 -8 5 -4 6 4 9 11 6
15 -2 5 6 9 20 9 14 0 22 -4 20 -9 -3 -4 -1 -11 5 -14 6 -4 9 -1 8 7 -2 7 5
12 15 12 14 -2 15 1 6 12 -10 12 -9 13 5 8 9 -4 16 -1 16 6 0 7 6 10 13 7 47
-19 50 -20 43 -9 -4 7 -3 12 3 12 5 0 13 -4 16 -10 3 -5 11 -10 17 -10 6 0 5
7 -3 17 -13 16 -13 16 10 0 20 -13 28 -14 40 -4 14 10 14 10 3 -5 -8 -9 -19
-15 -26 -12 -7 3 -13 -2 -13 -10 0 -13 4 -13 29 0 15 8 28 18 28 23 0 4 7 8
15 8 8 0 15 -4 15 -9 0 -4 -5 -8 -11 -8 -13 0 -33 -21 -37 -40 -2 -9 5 -6 18
8 20 21 36 30 26 14 -2 -4 -1 -14 5 -22 8 -13 9 -13 9 -1 0 11 3 12 11 4 6 -6
18 -9 27 -6 11 5 13 3 7 -7 -5 -9 -4 -11 3 -6 13 8 16 32 5 39 -5 2 -3 2 4 1
6 -2 14 2 17 9 3 7 3 2 1 -10 -3 -12 -1 -24 5 -28 6 -3 8 -11 5 -16 -4 -5 -3
-9 2 -9 4 0 16 14 25 30 9 17 23 30 30 30 8 0 6 -5 -4 -11 -25 -14 -23 -28 3
-22 21 6 71 -15 64 -27 -2 -4 2 -7 10 -7 8 0 16 6 19 13 3 8 0 11 -10 7 -7 -3
-14 0 -14 6 0 6 -3 10 -7 9 -5 -2 -9 0 -10 5 -7 18 -1 19 19 1 19 -17 21 -17
15 -1 -11 30 1 19 27 -25 14 -24 26 -37 26 -30 0 6 7 12 16 12 8 0 13 4 10 8
-2 4 4 8 14 9 15 1 12 -4 -12 -26 -21 -19 -28 -30 -19 -35 7 -4 10 -2 9 5 -2
6 3 14 11 17 9 3 11 0 6 -8 -5 -9 -4 -11 3 -6 7 4 12 2 12 -5 0 -7 3 -9 6 -6
4 4 1 13 -6 22 -7 8 -9 15 -4 16 5 0 19 2 32 5 12 2 22 0 22 -5 0 -6 -10 -8
-22 -6 -16 3 -19 2 -11 -6 6 -6 9 -19 6 -28 -4 -14 -3 -14 6 1 7 11 20 15 36
12 14 -2 25 0 25 5 0 6 -9 8 -19 6 -14 -3 -18 1 -14 12 5 12 7 12 14 1 5 -7 9
-9 9 -5 0 12 40 -12 40 -24 0 -6 -4 -8 -9 -4 -5 3 -12 1 -15 -4 -4 -5 1 -8 10
-7 18 3 35 26 28 38 -3 5 -9 6 -14 3 -5 -3 -11 -1 -15 4 -3 6 4 8 16 6 16 -3
20 0 15 13 -5 13 -2 12 9 -3 9 -11 21 -20 28 -20 7 0 11 -11 10 -25 -3 -25 -3
-25 10 -3 14 26 27 30 38 11 7 -10 12 -9 26 6 17 19 17 19 -1 5 -11 -7 -17 -9
-13 -2 4 6 2 14 -3 16 -6 3 -5 4 2 3 7 -2 19 4 26 13 10 13 11 13 7 1 -4 -11
3 -15 29 -17 23 -1 34 2 32 10 -1 7 -1 9 1 5 3 -5 9 -8 14 -8 6 0 8 4 5 8 -3
5 1 9 9 9 8 0 11 -5 8 -10 -4 -6 0 -8 10 -4 9 3 19 2 22 -4 4 -5 1 -8 -6 -7
-6 2 -14 -4 -16 -12 -3 -9 -1 -11 4 -5 4 6 17 12 27 13 16 3 18 1 8 -10 -9
-12 -9 -15 2 -15 15 0 16 14 2 35 -4 7 -5 16 -2 19 3 4 6 1 6 -6 0 -7 5 -9 12
-5 6 4 8 3 4 -4 -3 -6 -2 -13 4 -17 6 -4 7 -12 4 -18 -5 -8 -3 -8 7 1 17 16
32 16 23 0 -4 -7 2 -5 13 4 24 21 40 24 24 4 -9 -11 -9 -16 0 -22 7 -4 9 -3 5
4 -3 6 2 16 13 21 11 6 21 8 24 3 2 -4 2 -2 1 5 -2 6 3 14 11 17 9 3 12 0 8
-10 -5 -12 -1 -13 21 -3 14 7 26 17 26 23 0 6 4 4 9 -4 12 -18 5 -31 -14 -24
-18 7 -40 -32 -23 -42 6 -4 8 -3 5 2 -3 6 -2 16 3 24 8 13 12 12 25 -5 14 -19
15 -19 8 -1 -5 14 -3 17 7 11 8 -5 11 -4 7 2 -4 6 0 16 8 23 8 7 15 9 15 4 0
-5 5 -2 10 6 9 13 10 13 11 0 1 -8 1 -19 -1 -25 -1 -5 4 -5 11 2 6 6 19 9 28
5 14 -5 15 -4 1 14 -14 18 -14 18 2 5 10 -7 16 -16 14 -20 -3 -4 -1 -13 5 -21
7 -12 9 -12 9 -1 0 8 6 11 16 7 8 -3 13 -2 10 2 -2 4 2 16 10 26 12 17 13 16
9 -14 -2 -17 -1 -29 3 -25 4 4 7 12 7 17 0 6 6 13 14 16 8 3 11 0 7 -7 -5 -7
-1 -9 10 -4 13 5 15 3 9 -7 -5 -9 -4 -11 4 -6 9 6 9 11 0 22 -6 8 -9 17 -5 21
3 3 6 1 6 -5 0 -7 7 -12 16 -12 9 0 12 5 8 12 -4 7 -3 8 5 4 9 -6 9 -11 0 -22
-14 -17 2 -19 19 -2 9 9 11 6 7 -11 -2 -12 0 -19 6 -16 5 4 7 11 3 16 -9 16
29 6 44 -11 8 -9 7 -1 -3 20 l-16 35 28 -30 c15 -17 24 -25 20 -19 -5 8 0 15
15 20 13 3 27 12 31 18 5 6 5 0 1 -14 -6 -22 -5 -23 10 -11 9 7 16 10 16 5 0
-5 5 -2 10 6 7 10 10 11 10 2 0 -7 -7 -15 -15 -18 -8 -4 -15 -11 -15 -17 0 -6
3 -7 7 -4 3 4 13 1 22 -6 14 -11 14 -10 2 6 -15 20 -2 23 18 4 11 -10 12 -9 5
3 -11 19 -13 60 -2 54 5 -3 7 -13 6 -21 -2 -9 3 -18 11 -21 8 -3 11 0 7 7 -4
6 -2 9 7 5 8 -3 23 3 33 13 17 17 17 17 11 1 -3 -10 -2 -18 3 -18 5 0 7 -8 4
-17 -5 -15 -4 -16 5 -3 9 13 12 12 25 -5 10 -14 14 -15 13 -5 -1 8 3 16 8 18
6 2 20 9 32 17 20 13 23 13 32 -3 6 -9 11 -11 11 -4 0 18 -4 27 -12 25 -3 -1
-8 3 -11 10 -3 7 3 13 13 13 10 0 17 -3 15 -6 -2 -4 12 -14 31 -23 37 -18 58
-23 34 -7 -8 5 -11 12 -8 15 4 4 13 3 20 -1 20 -13 38 -13 35 -2 -1 6 4 13 12
16 10 3 11 0 5 -9 -7 -12 -5 -12 9 0 9 7 17 10 17 6 0 -5 9 0 20 10 18 16 25
14 21 -8 -1 -4 8 -3 19 3 11 6 20 16 19 23 -4 33 3 53 22 65 12 8 18 9 15 3
-4 -5 -2 -13 4 -16 6 -4 8 -16 5 -28 -5 -21 -5 -21 6 1 12 22 29 30 29 14 0
-5 7 -9 15 -9 8 0 11 5 8 10 -4 6 0 8 9 5 8 -4 15 0 15 8 0 7 -5 10 -10 7 -16
-10 -67 -11 -67 -1 0 4 6 8 14 8 8 0 17 6 19 13 4 9 6 9 6 0 1 -17 28 -17 34
0 4 9 6 9 6 0 1 -7 6 -13 12 -13 5 0 7 5 4 10 -3 6 -1 10 4 10 14 0 14 -6 -1
-30 -14 -22 -4 -38 14 -23 7 6 21 9 31 8 10 -2 14 1 10 8 -4 7 0 8 11 4 10 -4
20 -7 22 -7 3 0 2 -5 -2 -12 -4 -7 -3 -8 5 -4 6 4 8 12 5 18 -5 7 -1 9 9 5 9
-3 19 -1 23 5 4 7 3 8 -4 4 -8 -5 -10 -1 -5 9 8 23 25 -3 17 -28 -3 -9 0 -17
6 -17 6 0 8 5 5 10 -3 6 -1 10 5 10 8 0 7 6 -1 21 -8 15 -8 19 0 15 6 -4 11
-2 11 5 0 7 6 5 13 -6 13 -17 15 -17 31 6 l18 24 -7 -25 c-6 -24 -5 -24 9 -6
15 19 22 11 16 -19 -1 -5 8 -1 19 9 12 11 24 16 28 13 3 -4 0 -7 -8 -8 -8 0
-3 -5 11 -10 14 -6 27 -10 29 -9 2 1 8 -4 12 -12 7 -10 9 -10 9 0 0 7 5 10 10
7 6 -4 8 -11 5 -16 -4 -5 2 -6 11 -2 11 4 13 8 6 11 -7 2 -9 8 -6 13 3 6 11 5
20 -2 8 -6 14 -8 14 -3 0 5 5 2 10 -6 7 -11 10 -11 10 -2 0 7 4 11 9 7 5 -3
12 -1 15 4 4 5 1 13 -5 17 -7 4 -9 3 -6 -2 3 -6 -5 -10 -18 -10 -13 0 -22 3
-19 7 2 5 -4 6 -15 4 -18 -3 -19 -1 -9 15 12 18 12 18 26 -1 10 -14 17 -17 26
-10 7 6 16 8 19 4 4 -3 7 0 7 8 1 10 4 9 11 -4 6 -9 15 -15 21 -11 7 4 6 9 -2
14 -8 5 -7 9 4 13 9 4 15 3 15 -1 -3 -20 2 -25 12 -12 9 13 10 13 6 0 -2 -8
-10 -14 -16 -12 -7 1 -10 -2 -6 -7 3 -6 -3 -8 -14 -6 -18 3 -38 -21 -26 -33 3
-3 5 0 5 6 0 7 5 12 11 12 5 0 7 -6 3 -12 -4 -7 5 -2 19 11 22 20 29 22 42 11
11 -9 12 -16 5 -25 -8 -10 -8 -15 1 -21 7 -4 9 -3 6 3 -9 14 19 36 35 28 7 -4
5 0 -4 8 -20 16 -24 37 -7 37 5 0 8 -4 5 -9 -3 -5 1 -12 9 -15 10 -4 19 2 26
17 8 19 9 18 3 -8 l-6 -30 28 25 c18 17 28 21 31 12 3 -6 10 -9 16 -5 18 12
54 10 54 -2 0 -6 -8 -11 -18 -11 -10 0 -15 4 -13 8 3 4 1 8 -5 8 -5 0 -13 -4
-16 -10 -3 -5 -1 -10 4 -10 6 0 10 -3 9 -7 -2 -5 2 -8 7 -8 6 0 9 4 7 9 -2 5
4 6 13 2 9 -3 19 -6 21 -6 3 0 3 -4 0 -8 -3 -5 1 -9 9 -9 8 0 11 5 7 11 -11
19 -12 46 -1 46 5 0 7 -4 4 -10 -3 -5 -2 -10 4 -10 5 0 12 6 14 13 4 8 6 8 6
-2 1 -11 5 -10 16 5 15 19 15 19 9 -1 -5 -18 -3 -17 15 4 l21 24 -3 -24 c-3
-19 -10 -24 -35 -24 -18 0 -32 -3 -32 -7 0 -31 1 -32 9 -19 10 15 41 24 41 12
0 -4 -5 -12 -11 -18 -8 -8 -7 -13 2 -18 7 -5 10 -4 5 3 -3 6 -2 13 4 17 16 10
50 82 42 90 -4 5 -1 5 6 1 7 -5 11 -11 8 -14 -3 -3 1 -13 9 -22 13 -14 13 -17
0 -17 -8 0 -12 4 -9 9 3 4 0 8 -5 8 -13 0 -14 -10 -1 -30 6 -10 10 -11 10 -2
0 6 6 11 13 10 7 -2 11 6 10 19 -3 29 5 29 16 1 7 -18 4 -26 -13 -36 -19 -12
-19 -13 -1 -6 11 3 25 7 32 7 7 0 10 3 8 6 -2 4 3 17 11 31 14 25 14 24 9 -10
-4 -25 -3 -31 5 -20 5 8 10 11 10 6 0 -6 5 -5 11 1 6 6 18 9 25 6 8 -3 14 0
14 7 0 6 5 8 10 5 6 -4 7 -12 4 -18 -4 -8 -2 -7 7 1 12 11 12 14 -1 22 -8 5
-18 6 -22 4 -4 -3 -8 0 -8 5 0 14 16 14 40 -1 16 -10 23 -9 42 7 13 12 17 13
10 4 -6 -9 -8 -20 -4 -24 4 -5 2 -6 -3 -2 -6 3 -17 1 -25 -4 -13 -9 -13 -10 0
-6 8 2 23 0 33 -5 12 -6 23 -6 32 2 10 8 16 7 24 -7 6 -10 11 -13 11 -7 0 6 7
11 15 11 8 0 15 -5 15 -11 0 -6 5 -4 10 4 8 13 11 12 25 -5 14 -19 15 -18 4 7
-9 20 -16 25 -24 18 -8 -7 -12 -5 -12 4 0 8 7 12 16 11 9 -2 19 -4 24 -4 4 -1
7 -8 7 -17 0 -8 5 -12 10 -9 6 3 10 1 10 -6 0 -7 3 -9 6 -6 4 4 -1 19 -11 34
-18 27 -18 28 1 13 25 -20 33 -31 30 -44 -2 -6 -1 -8 1 -3 3 4 10 4 16 0 7 -4
6 1 -2 10 -7 9 -10 17 -6 17 4 0 2 6 -4 13 -8 10 -7 14 4 14 8 0 12 -4 9 -9
-3 -4 0 -8 5 -8 6 0 10 -3 10 -7 -1 -5 -1 -15 0 -23 1 -13 3 -13 10 0 6 8 7
18 5 22 -3 4 0 8 6 8 6 0 9 4 6 8 -2 4 4 9 15 9 10 1 19 -3 19 -8 0 -6 -4 -8
-9 -4 -11 6 -26 -13 -17 -22 3 -3 12 0 20 6 11 10 16 9 24 -5 8 -15 10 -15 16
1 5 15 9 15 23 4 12 -10 14 -10 9 -1 -4 6 -2 12 3 12 6 0 11 -6 11 -14 0 -8 4
-17 9 -20 5 -4 7 2 4 13 -3 10 0 22 6 25 6 4 9 1 8 -6 -2 -7 -2 -10 0 -5 3 4
9 4 15 1 6 -4 6 2 -1 14 -8 14 -8 23 -1 27 6 4 9 1 8 -7 -2 -8 4 -12 15 -10 9
2 17 -2 17 -8 0 -6 -4 -9 -8 -6 -4 2 -8 -4 -9 -14 -1 -11 2 -22 8 -25 5 -4 6
2 2 11 -5 13 -3 15 7 9 9 -5 11 -4 6 3 -7 11 2 15 39 15 29 0 35 -3 35 -14 0
-8 -5 -8 -15 1 -10 9 -15 9 -15 1 0 -6 6 -12 13 -12 6 -1 19 -2 27 -3 8 0 14
-7 12 -14 -1 -8 2 -11 8 -7 7 4 5 14 -5 28 -8 12 -15 26 -15 32 0 5 4 4 9 -4
7 -10 12 -8 25 10 9 13 16 19 16 13 0 -5 -5 -15 -12 -22 -9 -9 -6 -12 16 -12
15 0 37 5 48 11 12 7 18 7 14 1 -4 -7 9 -9 34 -7 45 4 46 3 23 -16 -10 -8 -14
-9 -10 -2 5 8 0 11 -13 10 -22 -1 -28 -16 -7 -18 6 0 22 -2 35 -3 13 -2 26 2
29 7 4 6 1 7 -6 2 -9 -5 -9 -1 1 14 13 21 13 21 41 -11 16 -18 26 -27 22 -20
-5 9 -1 12 10 10 10 -2 20 4 22 12 4 13 3 13 -6 0 -7 -9 -11 -10 -11 -3 0 6 4
14 10 18 5 3 7 13 4 23 -5 13 -4 14 4 3 5 -7 9 -26 8 -42 -1 -15 1 -26 5 -23
4 2 10 0 14 -6 4 -7 12 -7 26 0 10 6 19 8 19 4 0 -4 9 1 20 11 18 16 25 14 21
-7 0 -5 3 -8 9 -8 5 0 10 6 10 13 0 8 4 7 10 -3 5 -8 10 -10 10 -5 0 6 9 11
21 12 16 2 18 -1 9 -12 -8 -10 -8 -15 2 -21 7 -4 10 -4 6 1 -11 11 11 35 31
35 13 0 13 -2 2 -9 -10 -7 -6 -9 13 -8 24 2 25 3 9 15 -9 6 -22 12 -27 12 -6
0 -4 5 4 10 8 5 22 9 30 9 10 0 8 -3 -5 -9 -18 -7 -17 -8 10 -16 17 -4 36 -14
43 -23 11 -14 11 -14 6 1 -4 12 -1 16 13 13 10 -1 17 -8 15 -15 -1 -6 2 -8 8
-5 6 4 9 10 6 13 -3 3 -1 11 5 19 6 7 8 13 4 13 -11 0 15 29 35 40 12 6 17 5
17 -5 0 -8 -7 -11 -16 -8 -12 5 -13 3 -5 -6 6 -6 24 -14 40 -17 21 -3 25 -2
14 5 -8 5 -17 8 -21 5 -4 -2 -4 6 -1 18 5 19 7 20 10 5 2 -9 8 -15 13 -11 5 3
6 10 3 16 -4 7 -2 8 5 4 6 -4 9 -12 6 -17 -4 -5 -1 -9 5 -9 6 0 8 -5 4 -12 -4
-7 -3 -8 5 -4 6 4 9 12 6 17 -4 5 0 9 7 9 10 0 9 3 -2 11 -13 9 -13 10 0 6 8
-2 14 -12 14 -21 -1 -9 3 -16 8 -16 6 0 8 11 6 25 -4 19 -2 23 11 16 9 -4 22
-6 29 -5 6 1 16 2 22 3 5 0 7 9 4 19 -5 14 -4 14 4 2 13 -18 -5 -43 -25 -36
-7 3 -13 1 -13 -4 0 -14 22 -12 44 5 14 10 23 12 32 4 10 -8 11 -3 8 23 l-4
33 15 -30 c8 -16 13 -22 11 -13 -3 10 -1 20 5 23 5 4 7 10 5 14 -3 4 1 8 9 8
8 0 11 -5 7 -11 -3 -6 -8 -20 -9 -31 -2 -13 5 -7 18 15 11 19 17 25 14 13 -6
-22 9 -41 20 -24 3 6 12 8 20 5 8 -4 13 -9 10 -13 -2 -4 2 -8 10 -8 11 0 12 4
4 14 -9 9 -8 13 0 13 6 0 14 -7 18 -15 4 -12 11 -8 29 17 24 32 32 32 15 -1
-8 -15 -5 -17 22 -15 18 1 34 2 37 4 3 1 8 2 12 1 4 0 5 6 2 14 -5 11 -2 13
10 9 9 -3 13 -10 10 -15 -3 -5 0 -9 5 -9 15 0 14 27 -1 34 -7 3 -4 4 7 3 11
-2 19 -8 18 -13 -1 -6 14 -9 35 -7 20 1 40 -3 45 -10 6 -8 7 -6 3 6 -6 19 4
23 21 6 8 -8 16 -8 30 0 16 11 15 11 -6 5 -17 -4 -21 -3 -16 6 5 8 4 11 -2 7
-5 -3 -10 0 -10 7 0 7 6 13 13 13 7 0 11 -4 8 -9 -3 -4 6 -8 19 -8 18 0 24 -5
22 -17 -1 -10 0 -12 2 -5 3 6 9 12 14 12 6 0 8 -4 4 -9 -3 -5 0 -13 6 -17 8
-4 9 -3 5 4 -4 7 -1 12 6 13 7 0 3 5 -9 11 -23 11 -31 28 -13 28 6 0 10 -4 10
-10 0 -16 22 -12 37 8 13 15 13 14 3 -7 -8 -14 -8 -21 -2 -17 6 4 15 -2 21
-11 9 -16 10 -16 8 4 0 12 -5 19 -11 16 -5 -3 -6 -2 -3 4 8 13 50 9 55 -5 2
-8 -3 -10 -15 -6 -15 5 -15 4 -3 -5 11 -8 18 -7 28 6 13 18 42 27 42 12 0 -5
5 -9 11 -9 6 0 1 13 -10 28 -15 22 -17 29 -6 29 8 0 11 -5 8 -10 -4 -6 0 -8 9
-4 9 3 21 0 27 -6 16 -16 50 -16 44 0 -4 10 -9 11 -18 3 -9 -8 -14 -6 -18 4
-4 9 -1 18 5 22 7 4 8 3 4 -4 -9 -16 7 -15 22 0 7 7 12 8 12 2 1 -5 7 2 16 16
12 21 14 21 9 4 -3 -12 0 -26 8 -32 10 -9 14 -8 14 3 0 8 -4 12 -9 9 -13 -8
-9 3 6 15 11 9 16 9 22 0 5 -8 3 -9 -5 -4 -10 6 -11 3 -1 -16 17 -32 17 -32
24 -14 4 10 2 14 -5 9 -7 -4 -10 -1 -7 7 6 14 9 15 43 4 16 -5 16 -4 -3 7 -12
8 -19 18 -15 23 4 5 0 3 -9 -4 -10 -7 -18 -9 -18 -3 0 5 7 13 16 16 9 3 12 11
8 18 -6 10 -4 10 8 0 9 -7 21 -11 28 -10 7 2 14 -2 17 -9 5 -13 -14 -12 -37 2
-13 7 -13 6 -2 -7 13 -16 35 -18 48 -5 4 3 2 12 -3 19 -13 17 -13 49 0 41 6
-4 8 0 4 9 -5 15 15 20 28 6 10 -10 45 3 39 14 -4 6 2 8 15 3 19 -6 20 -4 11
22 -8 23 -8 25 2 13 21 -25 52 -21 65 7 10 20 10 30 1 40 -8 11 -7 12 5 7 12
-4 15 -1 12 15 -2 12 1 18 8 15 18 -6 80 63 73 82 -3 8 -2 13 3 10 5 -3 11
-15 14 -26 3 -13 1 -18 -5 -13 -7 4 -8 1 -3 -7 6 -9 4 -11 -5 -5 -9 6 -11 4
-5 -5 6 -9 4 -11 -5 -5 -9 6 -11 4 -5 -5 6 -9 4 -11 -5 -5 -9 6 -11 4 -5 -5 6
-9 4 -11 -5 -5 -9 6 -11 4 -5 -5 5 -8 4 -11 -3 -6 -6 4 -18 -6 -27 -23 -9 -19
-11 -32 -5 -36 6 -4 7 -11 4 -17 -4 -7 -2 -8 5 -4 7 5 9 12 3 19 -11 15 8 51
28 55 8 2 16 7 18 12 2 5 11 6 20 3 11 -3 13 -2 5 4 -8 6 -5 16 12 35 13 15
26 24 30 20 4 -4 3 3 -4 15 -7 14 -17 20 -26 17 -8 -4 -15 -2 -15 4 0 11 18
11 37 -1 21 -13 27 16 29 126 1 92 -1 111 -16 125 -10 9 -16 25 -15 35 2 9 -1
15 -6 11 -5 -3 -7 -10 -4 -15 4 -5 2 -9 -4 -9 -5 0 -13 5 -16 10 -5 8 -12 7
-22 -2 -20 -16 -16 -16 -38 2 -11 9 -16 10 -11 3 5 -9 0 -13 -13 -13 -12 0
-21 4 -21 9 0 12 -39 8 -67 -8 -20 -10 -22 -9 -16 6 6 16 4 16 -17 -2 -13 -11
-21 -15 -17 -9 10 17 -37 35 -54 21 -7 -7 -5 -1 6 12 11 14 14 21 8 17 -18
-10 -84 -15 -78 -6 3 4 -2 10 -10 13 -10 4 -12 1 -8 -11 5 -14 3 -14 -17 3
-13 11 -20 14 -16 8 7 -12 -5 -18 -27 -14 -5 1 -6 -3 -3 -8 4 -5 2 -12 -4 -16
-6 -4 -8 -10 -5 -15 3 -5 1 -11 -4 -14 -5 -4 -12 -2 -16 4 -4 6 -11 7 -17 4
-7 -4 -8 -2 -4 5 4 6 13 8 19 5 7 -4 8 -3 4 1 -13 15 -37 14 -37 -1 0 -8 -6
-11 -17 -7 -11 4 -14 3 -9 -6 6 -10 4 -10 -12 0 -12 7 -19 16 -17 19 2 4 -2 7
-10 7 -8 0 -12 -4 -10 -8 6 -9 -16 -17 -33 -12 -6 3 -9 9 -6 15 4 5 -5 3 -19
-7 -18 -11 -27 -13 -32 -5 -5 8 -12 5 -22 -7 -8 -10 -12 -12 -8 -5 5 11 -6 17
-27 13 -5 0 -8 4 -8 11 0 6 -6 4 -13 -7 -10 -13 -16 -15 -21 -6 -4 6 -12 8
-18 5 -6 -4 -15 0 -20 7 -8 11 -9 10 -5 -3 7 -22 -14 -29 -37 -12 -12 9 -25
10 -35 4 -10 -5 -23 -5 -31 0 -9 6 -18 3 -27 -8 -12 -15 -12 -15 -7 3 6 16 4
17 -6 8 -8 -7 -22 -8 -41 -3 -20 6 -29 5 -29 -3 0 -8 -3 -8 -12 1 -9 9 -14 7
-24 -5 -10 -14 -14 -15 -27 -4 -16 12 -133 16 -204 6 -49 -6 -53 16 -8 41 11
6 25 21 31 33 6 12 20 32 30 44 11 12 25 33 31 47 7 14 17 32 22 40 5 8 17 35
27 60 11 24 28 56 40 70 19 23 31 54 41 105 2 10 10 29 18 42 8 12 15 29 15
37 0 8 5 27 12 43 6 15 10 32 9 36 0 4 3 16 8 26 6 10 12 29 15 42 2 13 9 42
14 65 5 22 8 54 7 70 -1 16 1 34 4 39 6 11 8 20 17 90 5 46 11 140 17 293 2
58 5 64 34 81 20 13 56 21 104 24 41 2 92 9 114 16 58 17 100 24 230 37 56 5
116 13 143 19 13 2 57 5 99 7 72 2 76 4 100 35 21 28 24 39 18 70 -5 21 -9 44
-11 52 -3 15 -28 33 -54 38 -8 2 -104 4 -213 5 -182 1 -199 3 -208 20 -5 10
-6 18 -1 18 6 0 6 19 1 46 -5 25 -6 50 -3 55 3 5 1 9 -4 9 -11 0 -10 280 1
298 5 6 4 12 -1 12 -10 0 -8 105 3 139 4 13 3 21 -2 18 -5 -3 -8 7 -7 21 1 15
3 27 4 27 5 0 6 47 0 50 -5 3 -5 140 0 140 1 0 3 33 4 73 1 39 -2 72 -6 72 -5
0 -6 6 -1 13 4 6 8 23 9 37 0 14 4 46 8 72 8 45 11 49 47 60 22 6 39 15 39 19
0 4 8 5 18 2 20 -5 53 20 70 54 19 34 9 112 -18 140 -23 24 -35 25 -189 24
-72 0 -92 11 -87 49 2 17 0 30 -4 30 -8 0 -34 51 -32 63 1 4 -3 7 -9 7 -5 0
-8 4 -5 9 3 5 -1 12 -10 15 -8 3 -12 10 -9 16 3 5 1 10 -4 10 -6 0 -11 5 -11
11 0 22 -64 91 -121 130 -74 50 -129 52 -178 7 -38 -35 -48 -35 -48 0 -1 62
-13 154 -23 173 -6 11 -13 34 -15 52 -2 18 -6 55 -10 82 -10 80 -15 136 -17
193 -1 28 -6 52 -11 52 -4 0 -5 4 -2 10 3 6 3 16 -2 22 -8 14 -12 158 -5 172
3 5 6 26 6 47 1 21 5 41 9 45 3 4 42 8 84 9 120 3 153 19 153 73 0 43 24 95
65 137 19 21 35 43 36 49 0 6 2 23 3 39 1 18 -7 36 -25 53 -15 14 -30 26 -33
25 -3 -1 -7 -1 -8 0 -5 1 -33 8 -55 13 -13 3 -25 0 -29 -5 -3 -6 -11 -6 -17
-1 -14 10 -27 10 -44 -1 -7 -5 -13 -4 -13 2 0 5 -13 8 -29 6 -17 -2 -34 2 -41
10 -14 17 -22 224 -10 240 5 6 8 14 9 18 0 13 44 97 51 97 9 0 83 169 81 184
0 3 6 21 15 41 8 19 11 35 8 35 -4 0 -1 6 5 13 6 8 13 31 15 53 3 21 8 50 11
64 4 14 9 52 11 85 3 33 6 74 8 90 1 17 0 34 -2 39 -3 5 -7 30 -9 55 -5 58 -9
81 -17 104 -3 9 -9 25 -12 35 -4 9 -8 30 -10 46 -3 17 -8 32 -12 35 -12 10
-41 62 -86 156 -37 77 -55 101 -128 170 -145 136 -177 164 -208 180 -16 9 -30
19 -30 24 0 7 -32 25 -55 31 -5 1 -21 10 -35 19 -28 20 -56 32 -85 38 -10 2
-22 9 -27 15 -4 7 -10 10 -13 6 -4 -4 -28 0 -53 7 -26 8 -63 15 -82 16 -19 2
-41 7 -48 13 -21 16 -191 10 -233 -8 -20 -8 -39 -12 -43 -9 -3 4 -6 27 -6 53
0 26 -3 50 -7 54 -8 8 -12 86 -6 99 2 4 14 2 26 -5 12 -7 45 -13 72 -15 65 -4
95 -11 137 -34 10 -5 27 -9 37 -9 11 0 23 -4 26 -10 3 -5 25 -10 49 -10 23 0
46 -4 52 -9 5 -6 21 -12 36 -15 14 -2 35 -9 46 -15 12 -6 31 -11 45 -11 13 0
27 -3 31 -7 3 -4 12 -8 19 -9 20 -3 121 -35 137 -43 8 -4 30 -4 50 0 42 9 212
5 228 -5 7 -4 12 -2 12 3 0 12 39 -6 52 -24 4 -5 8 -6 8 -1 0 5 8 2 18 -7 12
-11 27 -14 43 -11 13 3 32 7 42 7 9 1 17 5 17 10 0 4 5 5 10 2 6 -3 10 -1 10
4 0 6 7 11 15 11 8 0 15 5 15 10 0 6 11 20 25 32 38 33 86 113 87 145 1 40
-12 93 -23 93 -5 0 -9 5 -9 10 0 12 -37 55 -48 55 -4 1 -32 13 -63 28 -31 15
-65 27 -77 27 -11 0 -24 5 -27 10 -3 6 -16 10 -28 10 -12 0 -46 11 -74 25 -29
13 -53 21 -53 17 0 -4 -4 -1 -8 6 -5 7 -17 14 -28 16 -10 2 -46 11 -79 20 -72
20 -91 25 -130 32 -16 3 -55 12 -85 20 -30 8 -64 17 -74 19 -11 3 -40 11 -66
20 -53 18 -84 25 -121 29 -14 2 -35 9 -48 15 -12 7 -25 10 -28 7 -3 -2 -17 0
-32 6 -14 6 -58 12 -97 13 -59 1 -83 7 -148 38 -43 20 -91 37 -106 37 -16 0
-31 4 -34 8 -3 5 -36 10 -73 11 -37 1 -72 6 -77 12 -6 5 -18 9 -28 9 -9 0 -34
9 -55 19 -21 11 -58 21 -83 23 -25 2 -47 6 -50 10 -3 3 -23 8 -45 10 -22 2
-45 7 -50 10 -6 3 -35 11 -65 18 -30 7 -67 19 -82 27 -15 7 -31 14 -35 14 -12
2 -35 10 -61 20 -17 6 -21 6 -16 -2 4 -8 1 -8 -12 -1 -11 5 -29 8 -41 7 -13
-1 -23 1 -23 5 0 4 -18 7 -41 8 -22 1 -48 6 -58 12 -10 5 -21 6 -25 3 -3 -3
-6 -1 -6 5 0 7 -3 11 -7 10 -5 -1 -21 4 -38 11 -74 33 -136 53 -175 57 -80 10
-117 18 -137 31 -12 8 -23 14 -25 13 -2 -1 -16 4 -33 11 -16 7 -34 11 -38 10
-15 -3 -67 33 -73 51 -7 22 -31 29 -74 23 -87 -14 -115 -12 -156 11 -22 13
-48 24 -57 24 -10 0 -17 5 -17 10 0 6 -13 10 -28 10 -16 0 -32 3 -36 7 -4 4
-19 9 -34 11 -15 2 -28 7 -30 13 -2 5 -14 9 -27 9 -13 0 -27 5 -30 10 -3 6
-15 10 -26 10 -10 0 -19 4 -19 8 0 9 -88 33 -132 37 -13 1 -48 13 -78 27 -30
14 -73 29 -95 33 -44 9 -43 9 -65 18 -25 9 -125 31 -133 29 -5 -1 -6 2 -2 8 3
5 13 10 21 10 8 0 12 5 9 10 -3 6 1 10 11 10 20 0 126 109 118 121 -3 5 -1 9
4 9 9 0 10 2 15 73 2 26 -1 47 -6 47 -5 0 -4 6 2 13 6 8 8 16 6 19 -3 3 -8 15
-10 27 -8 41 -16 61 -26 61 -5 0 -9 7 -9 15 0 21 -118 135 -140 135 -10 0 -22
5 -25 10 -4 6 -11 8 -16 5 -5 -4 -9 -3 -9 2 0 13 -113 11 -145 -3z m83 -7618
c7 -4 12 -3 12 2 0 5 34 8 75 7 77 -2 122 -23 111 -52 -3 -7 -1 -15 5 -18 5
-4 7 -10 4 -15 -7 -11 72 -90 90 -90 8 0 15 -4 15 -10 0 -5 6 -10 13 -10 6 0
31 -18 55 -40 24 -22 51 -40 60 -40 10 0 23 -5 29 -11 18 -18 108 -16 126 3 9
8 36 19 61 22 25 4 48 11 51 17 4 5 10 7 15 4 4 -3 10 1 13 9 3 7 17 16 31 20
31 8 137 109 160 154 9 17 13 32 9 32 -4 0 -2 5 4 11 8 8 67 14 157 16 l146 5
0 -31 c0 -22 9 -41 30 -61 25 -25 35 -28 63 -23 36 7 62 29 62 51 0 8 9 16 19
18 10 1 22 7 25 12 3 5 34 9 68 10 34 0 71 5 82 11 26 14 148 14 157 0 3 -6 8
-25 9 -42 2 -18 6 -42 9 -54 3 -13 8 -32 10 -42 3 -11 10 -29 16 -41 6 -11 8
-25 5 -30 -3 -6 0 -10 7 -11 11 0 11 -2 0 -6 -11 -4 -10 -8 2 -22 8 -9 15 -38
17 -66 1 -27 6 -54 9 -60 4 -5 10 -27 14 -47 4 -21 11 -38 17 -38 6 0 7 -4 4
-10 -3 -5 2 -22 12 -37 10 -15 17 -28 16 -30 -9 -10 0 -35 21 -56 13 -13 29
-40 35 -60 7 -20 17 -39 22 -42 5 -4 9 -16 9 -27 0 -12 3 -18 7 -15 3 4 19
-16 35 -43 16 -28 35 -50 44 -50 8 0 13 -4 9 -9 -3 -5 2 -16 10 -24 8 -9 15
-21 15 -27 0 -6 5 -8 10 -5 6 3 10 1 10 -4 0 -6 7 -11 15 -11 15 0 22 -29 8
-31 -53 -7 -171 -4 -182 5 -11 8 -13 8 -7 -1 5 -9 0 -13 -14 -13 -14 0 -19 4
-14 13 4 6 -2 4 -13 -6 -16 -14 -23 -15 -29 -6 -5 8 -3 10 6 4 9 -6 11 -4 6 4
-6 9 -13 8 -29 -6 -11 -10 -17 -13 -14 -7 4 7 0 14 -8 17 -9 4 -12 1 -9 -8 4
-10 0 -12 -15 -8 -12 3 -21 9 -21 14 0 5 -3 8 -7 8 -22 -4 -33 2 -27 14 6 10
4 10 -7 0 -7 -7 -17 -13 -22 -13 -4 0 -5 6 -1 13 5 8 2 7 -9 -2 -15 -12 -20
-11 -35 3 -22 19 -36 21 -26 4 4 -7 -2 -5 -14 6 -21 18 -21 18 -17 -5 4 -22 3
-22 -9 -6 -15 20 -30 23 -21 5 4 -7 0 -5 -7 4 -13 15 -15 15 -27 -4 -9 -15
-16 -17 -24 -9 -15 15 -40 14 -32 -1 4 -7 0 -5 -8 5 -15 18 -32 24 -22 7 3 -6
-1 -7 -9 -4 -9 3 -13 11 -9 18 5 8 3 8 -8 -1 -8 -6 -25 -13 -39 -15 -14 -2
-24 -9 -22 -16 1 -8 -2 -11 -8 -7 -6 3 -8 10 -6 14 3 4 -6 7 -20 7 -13 0 -24
-5 -24 -10 0 -6 -5 -4 -10 4 -8 13 -11 13 -22 1 -11 -11 -11 -13 1 -6 9 5 12
4 7 -3 -4 -8 -15 -8 -31 -2 -14 5 -27 5 -30 0 -3 -4 -20 -7 -38 -6 -17 2 -37
0 -42 -5 -6 -4 -17 -3 -25 3 -12 8 -12 9 3 4 10 -3 15 -2 12 4 -3 5 4 7 16 5
12 -2 19 -1 15 3 -4 3 -19 7 -34 8 -35 1 -56 7 -63 17 -3 4 -5 -10 -5 -31 1
-22 6 -39 13 -39 6 0 9 6 6 13 -2 6 0 15 6 19 6 3 14 0 17 -8 3 -10 18 -14 44
-12 22 1 37 -2 34 -6 -3 -5 -10 -7 -15 -4 -17 11 -31 -6 -17 -22 15 -18 20
-45 7 -37 -5 3 -6 10 -3 16 4 6 -2 6 -15 -1 -24 -13 -28 -23 -6 -15 9 4 15 0
15 -10 0 -19 -5 -20 -29 -6 -14 7 -23 5 -35 -9 -14 -16 -21 -17 -41 -7 -14 6
-23 16 -20 23 2 7 -1 15 -7 19 -7 4 -8 3 -4 -4 4 -7 1 -12 -8 -12 -9 0 -16 -4
-16 -10 0 -5 5 -10 12 -10 6 0 8 -3 5 -7 -4 -3 -19 7 -34 22 -23 23 -24 26 -6
17 17 -9 22 -9 27 4 3 9 3 21 -1 27 -4 7 2 5 12 -3 15 -12 17 -12 10 -1 -6 11
-4 13 11 8 18 -7 18 -7 0 8 -19 15 -19 15 2 15 25 0 28 10 10 28 -9 9 -9 15 0
24 15 15 15 28 1 28 -5 0 -7 -4 -4 -10 3 -5 1 -10 -4 -10 -6 0 -11 -8 -12 -17
0 -15 -2 -15 -9 2 l-9 20 0 -20 c-1 -16 -3 -17 -11 -5 -8 13 -11 13 -22 1 -7
-8 -8 -11 -2 -8 7 4 14 0 17 -8 5 -11 1 -12 -18 -5 -16 6 -27 6 -31 -2 -4 -7
-3 -8 4 -4 7 4 12 2 12 -3 0 -6 -5 -11 -11 -11 -5 0 -7 -4 -4 -10 3 -6 -1 -7
-9 -4 -9 3 -13 11 -9 17 4 6 1 7 -8 1 -14 -9 -19 -10 -40 -13 -5 0 -7 -7 -3
-13 4 -7 4 -10 -1 -6 -4 4 -15 2 -24 -5 -14 -11 -14 -10 -2 6 15 19 2 24 -17
5 -9 -9 -12 -9 -12 1 0 10 -3 11 -14 2 -10 -8 -16 -9 -21 -1 -3 6 -11 7 -17 4
-7 -4 -8 -2 -4 5 6 9 11 9 22 0 11 -9 14 -8 14 2 0 10 -13 14 -40 15 -22 0
-36 -2 -32 -5 5 -4 12 -15 16 -26 4 -11 4 -16 0 -12 -11 10 -35 -13 -27 -27 4
-7 1 -6 -9 1 -8 7 -19 9 -23 5 -5 -4 -5 -2 -1 5 3 6 2 15 -4 18 -6 4 -9 1 -8
-7 2 -7 -3 -12 -10 -10 -8 1 -11 -2 -8 -7 4 -5 2 -12 -4 -16 -5 -3 -10 2 -10
12 0 15 -2 16 -10 3 -6 -10 -10 -11 -10 -2 0 6 -9 12 -20 12 -11 0 -20 6 -21
13 0 8 -2 8 -6 -2 -4 -11 -7 -11 -14 0 -4 7 -20 13 -36 14 -20 0 -28 5 -27 18
1 9 -2 17 -7 17 -5 0 -9 -7 -9 -16 0 -14 -3 -14 -15 -4 -13 11 -14 10 -9 -4 5
-12 2 -15 -10 -10 -9 3 -14 9 -12 13 3 4 -3 7 -13 7 -10 0 -18 -6 -18 -13 0
-6 3 -12 6 -11 23 2 41 -4 36 -12 -8 -13 18 -8 27 5 5 6 8 3 8 -6 0 -9 7 -20
16 -23 24 -9 6 -26 -27 -26 -17 0 -28 -4 -25 -8 3 -5 -1 -9 -9 -9 -8 0 -12 4
-10 8 3 3 -4 9 -14 12 -13 3 -18 1 -14 -8 5 -14 -13 -15 -34 -2 -6 4 -15 2
-19 -4 -5 -8 -3 -9 7 -4 8 5 10 4 6 0 -12 -14 -37 -15 -37 -2 0 7 -5 4 -11 -5
-9 -17 -11 -17 -37 -1 -22 14 -25 15 -15 2 11 -13 9 -15 -10 -13 -12 1 -23 3
-24 4 -8 7 -30 5 -41 -4 -10 -7 -16 -5 -23 5 -6 10 -9 11 -9 1 0 -10 -17 -12
-65 -11 -36 1 -65 6 -65 11 0 5 -4 6 -10 3 -5 -3 -10 -1 -10 5 0 6 -4 8 -10 5
-5 -3 -10 -1 -10 5 0 7 -8 9 -21 5 -13 -5 -19 -3 -15 3 3 5 -1 13 -10 16 -12
4 -15 2 -10 -9 4 -13 2 -14 -14 -5 -11 6 -25 8 -30 5 -6 -3 -10 -1 -10 4 0 6
5 11 11 11 5 0 8 4 5 9 -3 4 10 7 29 6 19 -1 35 3 35 9 0 7 3 8 8 1 4 -5 17
-10 28 -11 16 0 20 4 16 15 -5 14 -4 14 13 1 17 -14 18 -13 11 4 -7 20 -7 20
15 0 23 -21 28 -22 40 -3 6 10 11 10 25 -2 15 -12 17 -12 9 0 -6 11 -4 13 8 8
10 -4 17 -1 17 5 0 9 3 9 12 0 7 -7 17 -12 22 -12 6 0 4 5 -4 11 -12 9 -11 10
6 6 11 -2 29 2 39 9 11 8 14 15 7 15 -7 1 -18 2 -24 3 -7 1 -16 -3 -20 -9 -5
-6 -8 -4 -8 5 0 13 -1 13 -10 0 -6 -10 -10 -11 -10 -2 0 6 -5 12 -11 12 -5 0
-8 -4 -5 -9 8 -12 -13 -9 -38 6 -12 6 -30 8 -48 3 -19 -6 -28 -5 -29 3 0 9 -2
9 -5 0 -3 -7 -12 -9 -21 -6 -12 5 -14 3 -8 -8 8 -12 6 -12 -8 0 -14 11 -17 11
-17 0 0 -12 -2 -12 -9 0 -6 9 -10 10 -16 2 -5 -9 -10 -9 -21 0 -8 6 -14 7 -14
2 0 -11 -29 -11 -46 -1 -12 8 -34 5 -53 -6 -10 -7 -12 -5 -6 3 5 9 1 12 -11
10 -11 -2 -25 0 -31 4 -7 5 -13 4 -13 -1 0 -6 -14 -7 -35 -2 -19 4 -33 4 -30
0 3 -4 -2 -11 -10 -14 -9 -3 -18 1 -21 9 -4 8 -10 15 -16 15 -5 0 -6 -6 -3
-12 4 -7 0 -5 -8 5 -14 17 -15 17 -21 0 -6 -13 -9 -14 -15 -4 -6 10 -12 9 -26
-6 -17 -17 -18 -17 -12 0 4 11 2 17 -8 17 -8 0 -15 -5 -15 -11 0 -8 -4 -9 -13
0 -8 6 -17 8 -20 4 -4 -3 -14 0 -24 8 -9 8 -14 9 -10 3 4 -7 0 -14 -8 -18 -8
-3 -19 2 -24 12 -9 16 -10 16 -17 -1 -6 -16 -7 -16 -19 -1 -9 14 -14 14 -20 4
-5 -9 -4 -11 3 -6 7 4 12 5 12 2 0 -14 -20 -14 -34 0 -9 8 -16 11 -16 5 0 -6
-5 -11 -11 -11 -5 0 -7 4 -4 10 4 7 -3 7 -20 0 -33 -13 -38 -13 -29 1 4 8 0 8
-15 0 -15 -8 -21 -9 -21 -1 0 6 -5 8 -12 3 -19 -11 -39 -13 -32 -2 6 11 -25 7
-45 -5 -9 -6 -12 -5 -8 1 4 6 0 14 -9 17 -8 3 -12 2 -9 -4 3 -6 1 -10 -4 -10
-6 0 -11 5 -11 11 0 8 -5 7 -15 -1 -13 -11 -14 -10 -10 1 5 14 -13 19 -77 22
-10 1 -18 4 -18 7 0 3 -19 6 -41 7 -23 2 -49 8 -57 15 -9 7 -13 8 -9 2 4 -7
-15 -10 -60 -9 -45 1 -68 6 -71 15 -3 7 0 10 7 6 6 -4 11 -4 11 1 1 4 23 24
50 43 28 19 50 39 50 43 0 4 13 22 29 39 17 18 36 43 43 57 7 15 15 28 18 31
8 8 33 63 36 80 2 8 12 22 23 32 12 9 21 28 21 42 0 14 5 26 10 26 6 0 10 9
10 20 0 11 4 20 10 20 5 0 14 18 20 40 6 22 15 40 21 40 6 0 8 4 4 9 -3 5 -1
12 5 16 5 3 10 16 10 29 0 12 4 26 9 31 6 6 12 22 15 37 6 38 16 51 29 41 9
-7 267 -10 297 -4 3 1 18 12 34 26 16 14 33 25 38 25 4 0 8 7 8 15 0 8 4 15 8
15 5 0 8 15 7 34 -2 30 2 37 27 47 16 7 64 13 106 15 89 3 194 13 199 18 6 6
69 0 81 -8z m-6100 -327 c177 -1 322 -6 322 -10 0 -5 10 -5 23 -1 21 8 86 8
117 1 8 -2 30 -18 50 -36 51 -46 137 -103 144 -96 3 4 6 1 6 -5 0 -7 3 -11 8
-11 4 1 9 0 12 -1 25 -10 210 -15 246 -7 13 3 26 -2 35 -14 7 -10 18 -19 24
-19 16 0 49 -79 50 -118 1 -18 5 -36 10 -40 6 -4 11 -14 13 -22 4 -21 25 -62
39 -77 6 -7 9 -22 6 -34 -4 -12 3 -32 16 -49 11 -16 21 -35 21 -42 1 -19 21
-43 49 -57 18 -10 20 -15 10 -21 -11 -7 -11 -13 1 -37 7 -15 13 -31 12 -35 -1
-5 3 -8 10 -8 6 0 9 -3 6 -6 -4 -3 7 -18 23 -33 16 -16 29 -32 29 -37 0 -5 9
-17 20 -27 12 -10 18 -22 15 -27 -3 -6 0 -10 8 -10 7 0 19 -12 25 -26 7 -14
17 -22 22 -19 6 3 10 2 10 -4 0 -6 11 -21 25 -34 17 -15 24 -29 19 -40 -5 -15
-9 -15 -22 -5 -13 11 -14 11 -7 -2 6 -10 2 -9 -12 3 -14 12 -23 15 -28 7 -3
-5 -10 -8 -15 -5 -5 3 -12 0 -16 -6 -5 -8 -3 -9 6 -4 9 5 11 4 6 -3 -5 -9 -13
-9 -28 -1 -12 6 -18 7 -14 1 8 -13 -19 -23 -41 -15 -9 4 -14 2 -10 -3 3 -5
-10 -9 -29 -9 -20 0 -34 5 -34 13 0 6 -4 12 -10 12 -5 0 -10 -8 -10 -17 0 -15
-2 -15 -9 -4 -5 8 -18 16 -28 17 -16 3 -16 1 2 -13 13 -10 15 -14 4 -10 -9 3
-22 1 -29 -3 -9 -6 -19 -2 -28 8 -7 9 -10 11 -6 3 6 -11 0 -13 -32 -8 -27 5
-34 3 -24 -3 10 -7 -8 -9 -60 -8 -41 1 -85 -1 -97 -6 -17 -5 -22 -4 -20 6 2 7
2 10 0 5 -3 -4 -9 -5 -14 -2 -5 4 -6 -2 -2 -12 4 -12 0 -10 -16 7 l-22 25 6
-25 c5 -20 4 -22 -5 -10 -9 12 -13 12 -17 2 -4 -10 -8 -9 -18 5 -11 14 -16 15
-26 6 -6 -6 -18 -9 -25 -6 -8 3 -14 -1 -14 -8 0 -11 -3 -11 -10 1 -9 13 -11
13 -20 0 -9 -13 -12 -12 -25 4 -8 11 -15 14 -15 7 0 -7 -5 -9 -12 -5 -7 5 -9
2 -6 -8 8 -19 -24 -17 -47 2 -15 12 -19 12 -29 -1 -6 -9 -17 -14 -25 -11 -8 2
-11 0 -8 -5 3 -5 0 -10 -8 -10 -8 0 -12 4 -9 9 8 13 -11 9 -24 -4 -10 -10 -15
-10 -21 1 -6 10 -10 10 -16 2 -5 -9 -10 -9 -20 -1 -10 8 -15 8 -21 -1 -5 -8
-3 -9 6 -4 9 5 11 4 6 -4 -6 -9 -11 -9 -22 0 -11 9 -14 9 -14 -1 0 -9 -4 -9
-17 1 -15 12 -16 12 -10 -6 6 -18 6 -19 -6 -3 -12 15 -16 16 -35 3 -15 -11
-23 -12 -28 -4 -5 8 -8 8 -14 -1 -5 -8 -12 -7 -24 5 -13 14 -16 14 -16 2 0
-15 -23 -17 -36 -5 -10 10 -35 -3 -27 -15 3 -6 1 -7 -5 -3 -6 4 -21 2 -32 -4
-15 -8 -20 -8 -20 1 0 8 -4 8 -15 -1 -9 -7 -15 -8 -15 -2 0 14 -33 10 -43 -5
-4 -7 -15 -9 -24 -6 -12 5 -14 3 -8 -8 8 -12 6 -12 -8 0 -14 11 -17 11 -17 0
0 -9 -3 -10 -8 -4 -8 12 -44 16 -37 5 3 -5 1 -11 -5 -15 -5 -3 -10 -1 -10 6 0
7 -7 4 -16 -7 -8 -10 -13 -12 -9 -4 4 10 2 9 -8 -2 -8 -10 -17 -15 -20 -12 -3
4 -14 3 -24 -1 -26 -12 -37 -12 -45 0 -5 6 -8 2 -8 -8 0 -17 -1 -17 -16 -3
-17 18 -28 21 -19 6 9 -14 -8 -12 -24 3 -8 7 -11 7 -8 1 9 -16 -28 -25 -42
-11 -8 8 -11 8 -11 -1 0 -6 -7 -9 -15 -6 -8 4 -12 11 -8 17 3 6 1 7 -5 3 -7
-4 -12 -15 -13 -24 0 -14 -2 -13 -9 3 -5 11 -9 16 -9 11 -1 -5 -9 -2 -18 5
-16 13 -17 12 -4 -4 17 -22 9 -33 -9 -12 -11 14 -14 13 -27 -2 -8 -10 -12 -12
-8 -5 4 8 -3 12 -24 12 -18 0 -31 -5 -31 -12 0 -9 -3 -8 -9 2 -6 8 -7 18 -4
24 3 5 1 6 -5 2 -7 -4 -12 -15 -12 -24 0 -10 -3 -13 -8 -7 -11 15 -47 42 -40
29 4 -5 -6 -15 -23 -21 -16 -6 -29 -7 -29 -2 0 4 -7 5 -17 2 -12 -5 -14 -3 -8
8 6 11 5 12 -5 2 -10 -10 -17 -10 -27 -1 -11 9 -13 8 -11 -3 2 -8 8 -17 13
-21 6 -5 5 -8 -3 -8 -7 0 -15 7 -19 16 -5 14 -8 13 -18 -6 -10 -19 -13 -20
-18 -6 -4 10 -3 15 3 11 6 -3 10 -2 10 4 0 5 -9 9 -20 8 -11 -1 -18 -7 -16
-13 3 -9 -3 -10 -26 -3 -20 5 -36 5 -44 -2 -8 -7 -14 -7 -19 1 -5 8 -12 7 -23
-3 -19 -16 -52 -19 -52 -4 0 5 -9 -1 -21 -14 -11 -13 -18 -19 -15 -12 4 6 2
14 -4 18 -5 3 -10 1 -10 -6 0 -7 -3 -9 -7 -6 -3 4 -13 1 -21 -6 -13 -9 -14 -9
-8 1 4 6 3 12 -3 12 -5 0 -13 -4 -16 -10 -3 -5 -19 -8 -35 -6 -18 2 -30 -1
-30 -8 0 -6 -5 -4 -10 4 -6 9 -10 11 -10 3 0 -7 -7 -10 -17 -6 -12 5 -14 3 -8
-8 6 -11 5 -11 -4 -3 -9 8 -22 9 -44 1 -18 -5 -39 -12 -47 -15 -43 -14 -105
-8 -94 9 3 5 1 9 -5 9 -5 0 -13 9 -16 21 -5 14 -13 19 -26 16 -10 -3 -19 -2
-19 3 0 4 -11 6 -25 5 -14 -2 -25 0 -25 3 0 7 -60 13 -163 16 -26 1 -48 6 -48
12 -1 8 52 31 95 40 11 2 22 8 25 12 3 5 17 13 31 17 14 4 33 14 43 23 9 8 17
12 17 8 0 -4 15 3 33 16 17 13 35 23 38 23 4 0 43 26 87 58 44 31 85 57 89 57
5 0 46 38 91 84 45 46 82 81 82 78 0 -2 10 8 22 24 12 16 28 33 35 37 7 4 13
12 13 18 0 8 34 50 81 99 31 32 49 65 49 87 0 13 3 23 8 23 10 0 85 117 88
137 2 10 10 23 19 30 18 12 70 143 57 143 -4 0 -2 4 3 8 17 12 46 72 40 81 -3
5 -1 12 4 16 5 3 8 14 6 24 -4 21 13 32 55 38 107 14 163 18 215 16 33 -1 205
-3 383 -4z m10602 -579 c-6 -11 -16 -17 -22 -14 -7 5 -5 12 7 21 25 18 28 17
15 -7z m-3389 -23 c-10 -9 -11 -8 -5 6 3 10 9 15 12 12 3 -3 0 -11 -7 -18z
m3654 3 c3 -6 -1 -7 -9 -4 -10 4 -16 1 -16 -7 0 -7 -3 -10 -6 -6 -7 7 4 27 16
27 5 0 12 -4 15 -10z m118 -16 c-3 -9 -9 -12 -12 -7 -3 5 -18 9 -33 8 -15 -1
-25 2 -22 6 2 4 13 6 24 4 11 -2 22 1 25 6 10 15 25 0 18 -17z m-693 10 c0 -8
-19 -13 -24 -6 -3 5 1 9 9 9 8 0 15 -2 15 -3z m723 -17 c3 -8 -1 -14 -8 -14
-7 0 -11 6 -8 14 3 7 6 13 8 13 2 0 5 -6 8 -13z m-3978 -35 c-3 -3 -11 0 -18
7 -9 10 -8 11 6 5 10 -3 15 -9 12 -12z m80 -12 c3 -5 1 -10 -4 -10 -6 0 -11 5
-11 10 0 6 2 10 4 10 3 0 8 -4 11 -10z m-1252 -83 c-4 -6 -1 -7 6 -2 9 5 10
10 2 18 -15 15 -14 30 2 20 6 -4 29 -8 50 -8 20 0 37 -3 37 -7 0 -5 0 -17 0
-28 0 -21 -21 -23 -49 -6 -10 6 -12 5 -7 -2 4 -7 1 -12 -9 -12 -9 0 -13 4 -10
10 3 6 -1 7 -9 4 -9 -3 -13 -11 -9 -17 4 -6 1 -7 -6 -3 -7 5 -17 18 -22 30 -8
17 -8 16 -4 -8 5 -25 4 -28 -8 -18 -8 7 -17 9 -20 5 -4 -3 -7 1 -7 11 0 10 -5
14 -12 10 -7 -4 -8 -3 -4 4 4 7 14 12 22 12 8 0 12 4 9 10 -4 6 1 7 11 3 13
-5 15 -3 9 8 -5 8 1 6 13 -5 12 -10 19 -23 15 -29z m1383 31 c5 -7 3 -8 -6 -3
-10 6 -12 4 -6 -11 5 -14 4 -16 -5 -7 -6 6 -8 16 -5 22 9 14 13 14 22 -1z
m3751 -113 c0 -8 -4 -12 -9 -9 -5 3 -6 10 -3 15 9 13 12 11 12 -6z m40 -10 c0
-17 -13 -20 -21 -6 -4 5 0 12 6 14 7 3 13 6 14 6 0 1 1 -6 1 -14z m-34 -60
c-3 -9 -8 -14 -10 -11 -3 3 -2 9 2 15 9 16 15 13 8 -4z m-88 -44 c-3 -6 -11
-11 -16 -11 -5 0 -4 6 3 14 14 16 24 13 13 -3z m-51 -92 c-3 -5 -10 -6 -16 -3
-7 5 -9 2 -6 -8 4 -9 0 -15 -8 -15 -18 0 -18 11 1 27 8 7 12 17 8 24 -4 6 1 5
10 -3 9 -7 14 -17 11 -22z m-9804 -25 c0 -8 -19 -13 -24 -6 -3 5 1 9 9 9 8 0
15 -2 15 -3z m9724 -5 c3 -3 -5 -5 -19 -5 -13 0 -22 3 -19 7 4 8 30 6 38 -2z
m-10244 -9 c0 -5 -4 -10 -10 -10 -5 0 -10 5 -10 10 0 6 5 10 10 10 6 0 10 -4
10 -10z m-1146 -128 c2 -4 -5 -9 -17 -9 -17 -2 -19 0 -7 7 18 12 18 12 24 2z
m10966 -22 c0 -5 -5 -10 -11 -10 -5 0 -7 5 -4 10 3 6 8 10 11 10 2 0 4 -4 4
-10z m76 -12 c10 -13 15 -20 10 -16 -5 4 -15 3 -22 -3 -13 -10 -32 6 -20 18 3
4 6 1 6 -6 0 -7 5 -9 10 -6 8 5 7 11 -1 21 -6 8 -9 14 -7 14 3 0 13 -10 24
-22z m-294 -10 c-19 -19 -14 -30 8 -18 12 6 27 7 36 2 12 -7 10 -10 -11 -20
-20 -9 -25 -9 -19 0 5 8 2 9 -9 5 -21 -8 -32 10 -17 28 7 8 15 15 18 15 3 0 1
-5 -6 -12z m-365 -34 c-3 -4 -2 -16 4 -28 10 -20 9 -20 -5 -2 -14 17 -13 36 1
36 4 0 3 -3 0 -6z m268 -24 c-3 -5 -14 -8 -25 -7 -13 1 -16 5 -10 13 6 6 6 14
2 19 -4 4 3 2 16 -4 12 -7 20 -16 17 -21z m-92 11 c4 -1 7 -6 7 -12 0 -8 -4
-8 -12 -1 -14 11 -47 10 -66 -1 -8 -5 -10 -3 -6 6 5 13 28 15 77 8z m-2213
-51 c0 -5 -2 -10 -4 -10 -3 0 -8 5 -11 10 -3 6 -1 10 4 10 6 0 11 -4 11 -10z
m295 -8 c-3 -3 -11 0 -18 7 -9 10 -8 11 6 5 10 -3 15 -9 12 -12z m198 3 c-3
-9 -8 -14 -10 -11 -3 3 -2 9 2 15 9 16 15 13 8 -4z m183 -27 c2 -13 0 -17 -2
-10 -3 6 -10 12 -15 12 -6 0 -7 -6 -3 -12 6 -10 4 -10 -8 0 -11 9 -18 10 -23
2 -3 -5 -10 -10 -16 -10 -13 0 -11 27 3 36 7 4 8 3 4 -4 -5 -8 0 -11 16 -8 13
3 27 5 32 5 5 1 2 9 -5 19 -11 14 -11 15 1 5 7 -7 15 -23 16 -35z m244 12 c0
-15 -18 -21 -26 -9 -4 8 -3 9 4 5 19 -11 14 5 -5 21 -16 13 -16 13 5 3 12 -6
22 -15 22 -20z m54 7 c-5 -14 -44 -18 -44 -5 0 4 9 8 21 8 13 0 18 4 13 12 -4
7 -3 8 4 4 6 -4 9 -12 6 -19z m100 15 c3 -5 -1 -9 -9 -9 -8 0 -12 4 -9 9 3 4
7 8 9 8 2 0 6 -4 9 -8z m45 -15 c0 -9 -2 -8 -6 1 -2 6 -10 9 -15 6 -7 -4 -8
-2 -4 5 9 13 26 5 25 -12z m120 20 c-2 -1 -13 -9 -24 -17 -19 -14 -19 -14 -6
3 7 9 18 17 24 17 6 0 8 -1 6 -3z m-672 -13 c-3 -3 -12 -4 -19 -1 -8 3 -5 6 6
6 11 1 17 -2 13 -5z m1208 -16 c-1 -16 -8 -22 -28 -23 -15 -1 -27 2 -27 7 0 5
-5 6 -12 2 -7 -4 -8 -3 -4 4 5 9 13 9 26 2 15 -8 21 -6 30 10 14 26 17 25 15
-2z m-2207 -24 c-17 -17 -38 -12 -38 9 0 8 3 7 9 -2 9 -14 31 -7 31 10 0 6 -5
7 -12 3 -7 -5 -8 -3 -3 5 5 9 10 10 18 2 8 -8 7 -16 -5 -27z m172 32 c0 -3 -4
-8 -10 -11 -5 -3 -10 -1 -10 4 0 6 5 11 10 11 6 0 10 -2 10 -4z m160 0 c0 -3
-4 -8 -10 -11 -5 -3 -10 -1 -10 4 0 6 5 11 10 11 6 0 10 -2 10 -4z m574 -28
c-9 -14 -23 2 -17 18 4 12 8 13 14 3 4 -7 5 -17 3 -21z m926 23 c0 -3 -4 -12
-9 -19 -6 -11 -9 -9 -13 5 -3 12 0 20 8 20 8 0 14 -3 14 -6z m97 -5 c-8 -21 4
-28 17 -10 12 16 46 10 46 -8 0 -6 -7 -5 -15 2 -13 11 -18 10 -30 -6 -8 -10
-15 -15 -15 -11 0 4 -9 3 -19 -2 -15 -8 -20 -7 -25 5 -9 23 -7 27 9 20 9 -3
18 1 21 9 4 8 8 15 11 15 3 0 3 -6 0 -14z m-1981 -18 c-1 -13 -7 -23 -12 -23
-5 0 -15 -4 -21 -8 -7 -5 -13 -4 -13 1 0 6 7 13 16 16 8 3 12 11 8 17 -4 8 -3
9 4 5 7 -4 12 -2 12 3 0 6 2 11 5 11 3 0 3 -10 1 -22z m303 4 c8 -15 6 -18
-14 -18 -14 0 -27 6 -30 14 -2 7 -1 10 4 7 5 -3 12 -1 16 5 9 14 13 13 24 -8z
m204 -12 c3 -11 2 -18 -3 -15 -4 3 -10 14 -13 25 -3 11 -2 18 3 15 4 -3 10
-14 13 -25z m1605 5 c-3 -3 -9 2 -12 12 -6 14 -5 15 5 6 7 -7 10 -15 7 -18z
m-28 7 c0 -5 -7 -9 -15 -9 -8 0 -15 4 -15 9 0 4 7 8 15 8 8 0 15 -4 15 -8z
m-4905 -21 c-9 -8 -36 -10 -30 -2 2 4 11 8 20 8 8 0 13 -3 10 -6z m-255 -16
c0 -8 0 -17 0 -20 0 -16 -15 -2 -16 15 -1 11 3 20 7 20 5 0 9 -7 9 -15z m406
-5 c0 -8 -8 -16 -18 -16 -11 0 -14 4 -8 12 6 6 8 13 5 16 -3 2 1 5 8 5 7 0 13
-8 13 -17z m-703 -10 c3 -11 1 -18 -4 -14 -5 3 -9 12 -9 20 0 20 7 17 13 -6z
m135 -5 c-3 -3 -9 2 -12 12 -6 14 -5 15 5 6 7 -7 10 -15 7 -18z m77 -4 c-6 -5
-25 10 -25 20 0 5 6 4 14 -3 8 -7 12 -15 11 -17z m585 25 c0 -2 -7 -9 -15 -16
-13 -11 -14 -10 -9 4 5 14 24 23 24 12z m30 -6 c0 -5 -2 -10 -4 -10 -3 0 -8 5
-11 10 -3 6 -1 10 4 10 6 0 11 -4 11 -10z m70 -1 c0 -4 -13 -6 -30 -5 -16 0
-30 4 -30 7 0 4 14 6 30 5 17 0 30 -4 30 -7z m139 -7 c0 -11 -2 -13 -6 -4 -3
9 -9 10 -17 3 -9 -8 -13 -7 -13 2 0 7 9 14 19 14 11 1 18 -5 17 -15z m2129
-12 c-1 -30 -11 -39 -23 -20 -5 8 -12 7 -22 -2 -21 -17 -40 -18 -53 -3 -8 10
-4 12 20 10 22 -2 30 1 26 10 -3 8 4 11 20 9 15 -1 24 3 24 12 0 8 2 14 4 14
3 0 4 -13 4 -30z m-3108 0 c0 -7 -13 -7 -38 -1 -2 1 -1 5 3 11 6 10 35 2 35
-10z m40 10 c0 -5 -8 -10 -17 -10 -15 0 -16 2 -3 10 19 12 20 12 20 0z m456
-10 c0 -23 -11 -27 -19 -6 -3 8 -1 17 6 20 7 2 12 5 12 5 1 1 1 -8 1 -19z
m739 11 c-3 -5 -1 -12 5 -16 5 -3 10 -12 10 -18 0 -8 -3 -7 -9 2 -5 7 -14 10
-21 6 -9 -6 -9 -3 -1 14 7 11 14 21 17 21 3 0 3 -4 -1 -9z m159 -21 c-6 -6
-10 -3 -10 10 0 13 4 16 10 10 7 -7 7 -13 0 -20z m-1894 10 c0 -5 -2 -10 -4
-10 -3 0 -8 5 -11 10 -3 6 -1 10 4 10 6 0 11 -4 11 -10z m180 6 c0 -2 -7 -7
-16 -10 -8 -3 -12 -2 -9 4 6 10 25 14 25 6z m-336 -25 c3 -4 -4 -7 -14 -6 -27
2 -33 10 -10 12 11 1 22 -2 24 -6z m3638 -21 c6 0 5 7 -3 18 -13 15 -12 16 4
3 14 -11 15 -17 5 -28 -10 -13 -14 -12 -25 3 -7 10 -13 23 -13 28 0 6 5 3 11
-6 5 -10 15 -18 21 -18z m-1662 10 c0 -5 -2 -10 -4 -10 -3 0 -8 5 -11 10 -3 6
-1 10 4 10 6 0 11 -4 11 -10z m-6207 -15 c-3 -9 -8 -14 -10 -11 -3 3 -2 9 2
15 9 16 15 13 8 -4z m7446 -19 c-3 -3 -11 5 -18 17 -13 21 -12 21 5 5 10 -10
16 -20 13 -22z m381 24 c0 -16 -17 -20 -28 -7 -8 10 -6 13 9 14 10 1 19 -2 19
-7z m-1303 -15 c0 -8 -4 -12 -9 -9 -5 3 -6 10 -3 15 9 13 12 11 12 -6z m1153
1 c0 4 5 3 11 -3 6 -6 18 -9 27 -5 13 5 12 7 -4 13 -16 6 -16 8 -2 8 26 1 31
-17 8 -29 -11 -6 -20 -8 -20 -4 0 3 -6 2 -13 -4 -16 -14 -34 -3 -34 20 0 14 3
15 14 7 7 -6 13 -8 13 -3z m-7650 0 c0 -3 -4 -8 -10 -11 -5 -3 -10 -1 -10 4 0
6 5 11 10 11 6 0 10 -2 10 -4z m55 -5 c-9 -8 -36 -10 -30 -2 2 4 11 8 20 8 8
0 13 -3 10 -6z m40 -1 c3 -5 1 -10 -4 -10 -6 0 -11 5 -11 10 0 6 2 10 4 10 3
0 8 -4 11 -10z m6275 6 c0 -3 -4 -8 -10 -11 -5 -3 -10 -1 -10 4 0 6 5 11 10
11 6 0 10 -2 10 -4z m584 -11 c3 -8 1 -15 -4 -15 -6 0 -10 7 -10 15 0 8 2 15
4 15 2 0 6 -7 10 -15z m243 -1 c0 -7 -5 -15 -12 -17 -6 -3 -11 3 -11 12 0 10
5 18 11 18 7 0 12 -6 12 -13z m167 0 c3 -8 2 -12 -4 -9 -6 3 -10 10 -10 16 0
14 7 11 14 -7z m-447 -12 c-8 -10 -12 -11 -15 -3 -3 9 -7 9 -18 0 -9 -7 -14
-8 -14 -1 0 12 14 18 41 18 14 0 16 -3 6 -14z m-6437 4 c0 -3 -4 -8 -10 -11
-5 -3 -10 -1 -10 4 0 6 5 11 10 11 6 0 10 -2 10 -4z m152 -18 c-7 -7 -12 -8
-12 -2 0 6 3 14 7 17 3 4 9 5 12 2 2 -3 -1 -11 -7 -17z m3240 0 c-7 -7 -12 -8
-12 -2 0 14 12 26 19 19 2 -3 -1 -11 -7 -17z m2758 14 c0 -5 -7 -9 -15 -9 -8
0 -15 4 -15 9 0 4 7 8 15 8 8 0 15 -4 15 -8z m-5890 -16 c0 -3 -4 -8 -10 -11
-5 -3 -10 -1 -10 4 0 6 5 11 10 11 6 0 10 -2 10 -4z m2917 -18 c2 -17 0 -19
-7 -8 -5 8 -6 18 -4 22 8 12 10 10 11 -14z m48 13 c3 -5 2 -12 -3 -15 -5 -3
-9 1 -9 9 0 17 3 19 12 6z m45 1 c0 -4 -10 -13 -22 -21 -23 -14 -23 -14 -4 8
20 22 26 25 26 13z m-2413 -27 c0 -8 -4 -12 -9 -9 -5 3 -6 10 -3 15 9 13 12
11 12 -6z m2177 -10 c-4 -8 -12 -11 -22 -7 -16 6 -15 7 1 10 9 2 14 8 11 14
-4 7 -2 8 4 4 6 -4 9 -13 6 -21z m43 3 c-3 -8 -6 -5 -6 6 -1 11 2 17 5 13 3
-3 4 -12 1 -19z m-2003 -37 c-2 -3 -12 3 -22 13 -16 17 -16 18 5 5 12 -7 20
-15 17 -18z m1811 -9 c-3 -3 -11 0 -18 7 -9 10 -8 11 6 5 10 -3 15 -9 12 -12z
m-1565 0 c0 -5 -7 -9 -15 -9 -8 0 -12 4 -9 9 3 4 9 8 15 8 5 0 9 -4 9 -8z
m1605 -2 c3 -6 -1 -7 -9 -4 -18 7 -21 14 -7 14 6 0 13 -4 16 -10z m-1142 -23
c3 -8 -1 -14 -9 -14 -15 0 -18 9 -7 20 9 9 10 9 16 -6z m147 7 c0 -8 -19 -13
-24 -6 -3 5 1 9 9 9 8 0 15 -2 15 -3z m309 -1 c-1 -5 -1 -15 0 -23 1 -13 2
-13 11 0 6 9 10 10 10 3 0 -6 -4 -14 -9 -18 -12 -7 -33 29 -24 39 8 8 13 8 12
-1z m139 -28 c-3 -3 -9 2 -12 12 -6 14 -5 15 5 6 7 -7 10 -15 7 -18z m382 2
c0 -7 -4 -6 -10 3 -8 12 -10 12 -10 1 0 -8 -3 -11 -7 -8 -3 4 -12 2 -18 -3 -9
-7 -16 -6 -25 4 -10 13 -8 15 7 11 11 -2 26 1 33 5 16 10 30 4 30 -13z m-256
5 c2 -4 -4 -8 -14 -8 -10 0 -16 4 -14 8 3 4 9 8 14 8 5 0 11 -4 14 -8z m73 -7
c0 -8 -4 -12 -9 -9 -4 3 -8 9 -8 15 0 5 4 9 8 9 5 0 9 -7 9 -15z m39 -34 c0
-10 -5 -18 -11 -18 -5 0 -10 10 -10 22 0 13 5 21 10 18 6 -2 11 -12 11 -22z"/>
<path d="M11750 3815 c0 -8 4 -15 10 -15 5 0 7 7 4 15 -4 8 -8 15 -10 15 -2 0
-4 -7 -4 -15z"/>
<path d="M11120 3800 c0 -5 5 -10 10 -10 6 0 10 5 10 10 0 6 -4 10 -10 10 -5
0 -10 -4 -10 -10z"/>
<path d="M10781 3727 c-13 -21 -12 -21 5 -5 10 10 16 20 13 22 -3 3 -11 -5
-18 -17z"/>
<path d="M10666 2868 c3 -5 10 -6 15 -3 13 9 11 12 -6 12 -8 0 -12 -4 -9 -9z"/>
<path d="M109 5043 c-1 -16 0 -32 1 -38 1 -5 2 -22 2 -37 0 -16 4 -28 10 -28
5 0 8 6 5 13 -2 6 2 24 9 39 11 21 11 33 2 53 -15 33 -28 32 -29 -2z"/>
<path d="M110 4920 c0 -5 5 -10 10 -10 6 0 10 5 10 10 0 6 -4 10 -10 10 -5 0
-10 -4 -10 -10z"/>
<path d="M110 4890 c0 -5 5 -10 10 -10 6 0 10 5 10 10 0 6 -4 10 -10 10 -5 0
-10 -4 -10 -10z"/>
<path d="M104 4848 c3 -13 5 -33 5 -45 1 -13 6 -23 12 -23 5 0 8 4 5 9 -4 5
-2 11 3 13 14 5 0 68 -15 68 -9 0 -12 -8 -10 -22z"/>
<path d="M118 4757 c-9 -22 -10 -129 -2 -151 3 -9 13 -16 21 -16 12 0 14 7 8
33 -3 17 -9 59 -13 92 -5 41 -9 54 -14 42z"/>
<path d="M130 4505 c0 -13 10 -50 22 -82 20 -55 22 -56 32 -34 8 18 8 25 -2
29 -7 2 -10 7 -7 12 3 5 0 21 -7 37 -13 31 -15 38 -17 53 -2 21 -21 9 -21 -15z"/>
<path d="M14610 3842 c0 -5 7 -9 15 -9 8 0 12 4 9 9 -3 4 -9 8 -15 8 -5 0 -9
-4 -9 -8z"/>
<path d="M14695 3820 c3 -5 8 -10 11 -10 2 0 4 5 4 10 0 6 -5 10 -11 10 -5 0
-7 -4 -4 -10z"/>
<path d="M14886 3818 c3 -5 10 -6 15 -3 13 9 11 12 -6 12 -8 0 -12 -4 -9 -9z"/>
<path d="M14293 3805 c0 -8 4 -12 9 -9 5 3 6 10 3 15 -9 13 -12 11 -12 -6z"/>
<path d="M13875 3790 c-3 -5 -1 -10 4 -10 6 0 11 5 11 10 0 6 -2 10 -4 10 -3
0 -8 -4 -11 -10z"/>
<path d="M14960 3455 c-11 -13 -11 -18 0 -28 10 -9 11 -9 6 1 -4 7 -2 19 4 27
7 8 10 15 7 15 -2 0 -10 -7 -17 -15z"/>
<path d="M14831 3324 c0 -11 3 -14 6 -6 3 7 2 16 -1 19 -3 4 -6 -2 -5 -13z"/>
<path d="M14662 3260 c-10 -16 -9 -21 9 -31 15 -8 19 -8 15 0 -4 6 0 14 8 17
9 3 16 11 16 17 0 6 -3 7 -7 4 -3 -4 -11 -3 -17 3 -8 6 -16 3 -24 -10z m28 -4
c0 -3 -4 -8 -10 -11 -5 -3 -10 -1 -10 4 0 6 5 11 10 11 6 0 10 -2 10 -4z"/>
<path d="M14507 3148 c9 -10 19 -15 22 -12 3 4 0 9 -7 11 -6 3 -10 8 -8 12 3
4 -1 8 -9 8 -13 0 -12 -4 2 -19z"/>
<path d="M14430 3141 c0 -6 4 -13 10 -16 6 -3 7 1 4 9 -7 18 -14 21 -14 7z"/>
<path d="M13829 3043 c-13 -16 -12 -17 4 -4 9 7 17 15 17 17 0 8 -8 3 -21 -13z"/>
<path d="M13485 3021 c-3 -6 -1 -11 5 -11 6 0 9 -4 6 -8 -3 -5 1 -9 9 -9 12 0
12 3 3 16 -7 9 -13 17 -14 19 -1 2 -5 -1 -9 -7z"/>
<path d="M12755 3000 c-3 -5 -1 -10 4 -10 6 0 11 5 11 10 0 6 -2 10 -4 10 -3
0 -8 -4 -11 -10z"/>
<path d="M12854 2996 c11 -9 27 -16 35 -15 14 0 14 1 1 6 -8 3 -24 10 -35 15
-20 9 -20 9 -1 -6z"/>
<path d="M12910 3001 c0 -5 7 -11 14 -14 10 -4 13 -1 9 9 -6 15 -23 19 -23 5z"/>
<path d="M13033 2990 c-1 -11 2 -18 8 -15 11 7 12 35 1 35 -4 0 -8 -9 -9 -20z"/>
<path d="M11331 2980 c9 -14 20 -23 24 -22 4 2 12 -2 17 -10 7 -10 8 -9 4 5
-3 9 -1 17 3 17 5 0 12 7 15 16 5 12 3 14 -6 8 -16 -12 -39 -11 -58 1 -12 8
-12 5 1 -15z m39 -4 c0 -3 -4 -8 -10 -11 -5 -3 -10 -1 -10 4 0 6 5 11 10 11 6
0 10 -2 10 -4z"/>
<path d="M11809 2993 c-1 -5 -1 -11 0 -15 0 -5 -3 -8 -8 -8 -6 0 -9 -9 -8 -20
1 -20 12 -17 12 3 0 7 8 11 17 11 14 -1 15 2 7 17 -10 20 -18 24 -20 12z"/>
<path d="M11420 2981 c0 -9 30 -24 36 -18 2 1 -6 8 -16 15 -11 7 -20 8 -20 3z"/>
<path d="M11029 2978 c-6 -15 -4 -46 3 -42 4 3 6 9 3 14 -3 4 0 10 7 12 9 3 9
6 0 12 -7 4 -13 6 -13 4z"/>
<path d="M12020 2971 c0 -6 4 -13 10 -16 6 -3 7 1 4 9 -7 18 -14 21 -14 7z"/>
<path d="M12170 2976 c0 -2 8 -10 18 -17 15 -13 16 -12 3 4 -13 16 -21 21 -21
13z"/>
<path d="M12770 2977 c0 -2 6 -10 14 -16 11 -9 16 -9 22 1 4 7 4 10 -1 6 -4
-4 -14 -3 -22 3 -7 6 -13 9 -13 6z"/>
<path d="M11395 2960 c-3 -5 -1 -10 4 -10 6 0 11 5 11 10 0 6 -2 10 -4 10 -3
0 -8 -4 -11 -10z"/>
<path d="M11665 2960 c-3 -6 1 -7 9 -4 18 7 21 14 7 14 -6 0 -13 -4 -16 -10z"/>
<path d="M13046 2962 c-2 -4 4 -8 14 -8 10 0 16 4 14 8 -3 4 -9 8 -14 8 -5 0
-11 -4 -14 -8z"/>
<path d="M8465 2950 c3 -5 8 -10 11 -10 2 0 4 5 4 10 0 6 -5 10 -11 10 -5 0
-7 -4 -4 -10z"/>
<path d="M8919 2958 c-7 -29 -7 -48 2 -48 5 0 7 5 4 10 -7 11 3 13 48 12 16 0
25 4 21 9 -3 6 -13 8 -21 5 -8 -3 -23 -1 -34 4 -10 6 -19 9 -20 8z"/>
<path d="M11473 2945 c0 -8 4 -12 9 -9 5 3 6 10 3 15 -9 13 -12 11 -12 -6z"/>
<path d="M11553 2945 c0 -8 4 -12 9 -9 5 3 6 10 3 15 -9 13 -12 11 -12 -6z"/>
<path d="M7460 2941 c0 -5 7 -12 16 -15 14 -5 15 -4 4 9 -14 17 -20 19 -20 6z"/>
<path d="M8290 2943 c0 -4 5 -15 10 -23 8 -13 10 -13 10 2 0 9 -4 20 -10 23
-5 3 -10 3 -10 -2z"/>
<path d="M8329 2948 c-5 -18 -6 -38 -1 -34 7 8 12 36 6 36 -2 0 -4 -1 -5 -2z"/>
<path d="M11215 2940 c3 -5 8 -10 11 -10 2 0 4 5 4 10 0 6 -5 10 -11 10 -5 0
-7 -4 -4 -10z"/>
<path d="M11740 2946 c0 -2 8 -10 18 -17 15 -13 16 -12 3 4 -13 16 -21 21 -21
13z"/>
<path d="M7582 2927 c-9 -11 -8 -14 3 -14 8 0 15 5 16 11 0 6 5 2 10 -9 8 -19
9 -19 6 -1 -3 24 -21 31 -35 13z"/>
<path d="M12029 2923 c-13 -16 -12 -17 4 -4 9 7 17 15 17 17 0 8 -8 3 -21 -13z"/>
<path d="M7313 2915 c0 -8 4 -12 9 -9 5 3 6 10 3 15 -9 13 -12 11 -12 -6z"/>
<path d="M8190 2921 c0 -6 4 -12 8 -15 5 -3 9 1 9 9 0 8 -4 15 -9 15 -4 0 -8
-4 -8 -9z"/>
<path d="M8664 2918 c9 -5 23 -5 32 0 12 6 7 9 -16 9 -23 0 -28 -3 -16 -9z"/>
<path d="M7948 2903 c6 -2 18 -2 25 0 6 3 1 5 -13 5 -14 0 -19 -2 -12 -5z"/>
<path d="M9016 2893 c-6 -14 -5 -15 5 -6 7 7 10 15 7 18 -3 3 -9 -2 -12 -12z"/>
<path d="M9266 2886 c10 -8 21 -12 24 -10 5 6 -21 24 -34 24 -6 0 -1 -6 10
-14z"/>
<path d="M9353 2872 c0 -12 5 -22 9 -22 11 0 10 12 -2 30 -7 12 -9 10 -7 -8z"/>
<path d="M3250 2864 c0 -8 5 -12 10 -9 6 4 8 11 5 16 -9 14 -15 11 -15 -7z"/>
<path d="M9788 2856 c-15 -11 -15 -13 5 -26 20 -12 21 -12 9 2 -10 13 -10 17
0 21 7 2 11 7 8 10 -3 3 -13 0 -22 -7z"/>
<path d="M10110 2861 c0 -3 4 -12 9 -19 6 -11 9 -9 13 5 3 12 0 20 -8 20 -8 0
-14 -3 -14 -6z"/>
<path d="M9584 2832 c-1 -15 1 -21 3 -14 3 6 9 9 15 6 6 -4 5 2 -1 15 -15 27
-16 27 -17 -7z"/>
<path d="M9716 2852 c-2 -4 -1 -14 5 -22 7 -12 9 -10 9 8 0 23 -5 28 -14 14z"/>
<path d="M9743 2845 c0 -8 4 -12 9 -9 5 3 6 10 3 15 -9 13 -12 11 -12 -6z"/>
<path d="M10166 2847 c3 -10 9 -15 12 -12 3 3 0 11 -7 18 -10 9 -11 8 -5 -6z"/>
<path d="M10470 2851 c0 -6 4 -13 10 -16 6 -3 7 1 4 9 -7 18 -14 21 -14 7z"/>
<path d="M10605 2849 c-4 -6 -4 -13 -1 -16 3 -4 6 -1 6 6 0 7 5 9 10 6 6 -3
10 -1 10 4 0 14 -17 14 -25 0z"/>
<path d="M10730 2850 c-9 -6 -10 -10 -3 -10 6 0 15 5 18 10 8 12 4 12 -15 0z"/>
<path d="M10876 2847 c3 -10 9 -15 12 -12 3 3 0 11 -7 18 -10 9 -11 8 -5 -6z"/>
<path d="M3566 2837 c3 -10 9 -15 12 -12 3 3 0 11 -7 18 -10 9 -11 8 -5 -6z"/>
<path d="M9695 2820 c-3 -5 -1 -10 4 -10 6 0 11 5 11 10 0 6 -2 10 -4 10 -3 0
-8 -4 -11 -10z"/>
<path d="M9759 2813 c-13 -16 -12 -17 4 -4 16 13 21 21 13 21 -2 0 -10 -8 -17
-17z"/>
<path d="M4076 2803 c-6 -14 -5 -15 5 -6 7 7 10 15 7 18 -3 3 -9 -2 -12 -12z"/>
<path d="M6617 2803 c5 -12 7 -12 14 -1 7 11 11 10 20 -2 9 -13 10 -13 6 0 -2
8 -13 15 -24 16 -15 1 -20 -3 -16 -13z"/>
<path d="M4430 2782 c0 -5 6 -15 14 -21 12 -10 14 -9 12 5 -3 19 -26 33 -26
16z"/>
<path d="M6476 2772 c-3 -3 -6 -10 -6 -16 0 -6 5 -4 10 4 7 11 10 12 10 2 0
-15 20 -12 23 2 2 10 -29 17 -37 8z"/>
<path d="M5150 2720 c0 -5 10 -14 23 -20 20 -10 20 -10 5 3 -10 8 -15 17 -11
20 3 4 1 7 -5 7 -7 0 -12 -4 -12 -10z"/>
<path d="M5550 2694 c0 -8 -4 -13 -8 -10 -5 3 -9 -1 -9 -9 0 -10 4 -12 12 -5
7 5 14 8 16 5 3 -2 5 5 5 15 0 11 -4 20 -8 20 -4 0 -8 -7 -8 -16z"/>
<path d="M5783 2695 c-7 -7 -8 -17 -2 -26 7 -11 9 -11 9 4 0 9 5 17 10 17 6 0
10 -6 10 -14 0 -8 4 -17 9 -20 5 -3 8 5 7 18 0 13 -3 22 -5 20 -2 -2 -9 0 -15
5 -7 5 -16 4 -23 -4z"/>
<path d="M5390 2685 c0 -7 30 -13 34 -7 3 4 -4 9 -15 9 -10 1 -19 0 -19 -2z"/>
<path d="M5957 2673 c-15 -15 -19 -16 -26 -4 -6 9 -10 10 -16 2 -5 -9 -10 -9
-21 0 -12 9 -13 9 -9 -3 8 -19 122 -19 130 0 3 7 1 10 -4 7 -5 -3 -12 -1 -16
5 -9 14 -18 13 -38 -7z m27 -1 c3 -5 -1 -9 -9 -9 -8 0 -12 4 -9 9 3 4 7 8 9 8
2 0 6 -4 9 -8z"/>
<path d="M5755 2660 c-3 -5 -1 -10 4 -10 6 0 11 5 11 10 0 6 -2 10 -4 10 -3 0
-8 -4 -11 -10z"/>
</g>
</svg>
